%
M48
M72
T01C0.0276
T02C0.0315
T03C0.0320
T04C0.0354
T05C0.0400
T06C0.1180
%
T01
X3237Y10269
X4237Y10269
X5769Y11092
X6769Y11092
X7365Y12917
X8365Y12917
T02
X8305Y10482
X8305Y8482
T03
X3821Y11793
X3821Y12793
T04
X2985Y15391
X2985Y16702
X2985Y18013
X2985Y19324
X5985Y19324
X5985Y18013
X5985Y16702
X5985Y15391
X8359Y7128
X8359Y4128
T05
X8465Y2151
X8465Y1151
X6044Y2161
X5044Y2161
X4044Y2161
X7674Y16293
X7674Y17293
X7674Y18293
X8465Y21313
X8465Y22313
X5780Y21946
X4780Y21946
X3780Y21946
T06
X3540Y6135
X4721Y4285
X5902Y6135
M30
