G75*
G70*
%OFA0B0*%
%FSLAX24Y24*%
%IPPOS*%
%LPD*%
%AMOC8*
5,1,8,0,0,1.08239X$1,22.5*
%
%ADD10C,0.0740*%
%ADD11R,0.0650X0.0650*%
%ADD12C,0.0650*%
%ADD13C,0.0600*%
%ADD14C,0.1700*%
%ADD15C,0.0100*%
%ADD16C,0.0070*%
%ADD17C,0.0002*%
D10*
X004044Y002161D03*
X005044Y002161D03*
X006044Y002161D03*
X008359Y004128D03*
X008465Y002151D03*
X008465Y001151D03*
X008359Y007128D03*
X008305Y008482D03*
X008305Y010482D03*
X005985Y015391D03*
X005985Y016702D03*
X005985Y018013D03*
X005985Y019324D03*
X005780Y021946D03*
X004780Y021946D03*
X003780Y021946D03*
X002985Y019324D03*
X002985Y018013D03*
X002985Y016702D03*
X002985Y015391D03*
X003821Y012793D03*
X003821Y011793D03*
X008465Y021313D03*
X008465Y022313D03*
D11*
X008365Y012917D03*
X005769Y011092D03*
D12*
X006769Y011092D03*
X007365Y012917D03*
X004237Y010269D03*
X003237Y010269D03*
D13*
X007374Y016293D02*
X007974Y016293D01*
X007974Y017293D02*
X007374Y017293D01*
X007374Y018293D02*
X007974Y018293D01*
D14*
X005902Y006135D03*
X004721Y004285D03*
X003540Y006135D03*
D15*
X005885Y003021D02*
X005045Y002181D01*
X005044Y002161D01*
X005885Y003021D02*
X005885Y006101D01*
X005902Y006135D01*
X005745Y008971D02*
X005745Y010301D01*
X005745Y011071D01*
X005769Y011092D01*
X005769Y011188D02*
X004695Y012261D01*
X004695Y014102D01*
X005985Y015391D01*
X006025Y015411D01*
X006025Y016671D01*
X005985Y016702D01*
X006025Y016741D01*
X006025Y017231D01*
X007635Y017231D01*
X007674Y017293D01*
X008102Y017721D01*
X008825Y017721D01*
X008825Y019611D01*
X007845Y020591D01*
X007845Y021693D01*
X008465Y022313D01*
X007674Y018293D02*
X006265Y018293D01*
X005985Y018013D01*
X004674Y016702D01*
X002985Y016702D01*
X002985Y018013D02*
X002985Y019324D01*
X003015Y019331D01*
X002985Y019331D01*
X002985Y020151D01*
X004780Y021946D01*
X002985Y015391D02*
X003015Y015341D01*
X003015Y013591D01*
X003785Y012821D01*
X003821Y012793D01*
X004275Y010301D02*
X004237Y010269D01*
X004275Y010301D02*
X005745Y010301D01*
X005745Y008971D02*
X008895Y005821D01*
X008895Y002601D01*
X008475Y002181D01*
X008465Y002151D01*
X008335Y004071D02*
X007985Y004071D01*
X006095Y002181D01*
X006044Y002161D01*
X008335Y004071D02*
X008359Y004128D01*
X008359Y007128D02*
X008335Y007151D01*
X008335Y008481D01*
X008305Y008482D01*
X008305Y010482D02*
X008335Y010511D01*
X008335Y012891D01*
X008365Y012917D01*
X008335Y012961D01*
X008335Y015621D01*
X007705Y016251D01*
X007674Y016293D01*
D16*
X005769Y011188D02*
X005769Y011092D01*
X002985Y019324D02*
X002985Y019331D01*
D17*
X001936Y000148D02*
X001945Y000147D01*
X001948Y000140D02*
X001942Y000133D01*
X001947Y000128D01*
X001954Y000134D01*
X001957Y000132D02*
X001962Y000143D01*
X001969Y000143D02*
X001973Y000132D01*
X001976Y000134D02*
X001984Y000128D01*
X001989Y000133D01*
X001983Y000140D01*
X001985Y000147D02*
X001995Y000148D01*
X001995Y000155D01*
X001985Y000156D01*
X001983Y000162D02*
X001989Y000170D01*
X001984Y000175D01*
X001976Y000169D01*
X001970Y000171D02*
X001969Y000181D01*
X001962Y000181D01*
X001961Y000171D01*
X001954Y000169D02*
X001947Y000175D01*
X001942Y000170D01*
X001948Y000162D01*
X001945Y000156D02*
X001936Y000155D01*
X001936Y000148D01*
X001970Y000171D02*
X001976Y000169D01*
X001960Y000171D02*
X001954Y000169D01*
X001945Y000146D02*
X001947Y000140D01*
X001945Y000156D02*
X001947Y000162D01*
X001970Y000171D02*
X001976Y000169D01*
X001985Y000146D02*
X001983Y000140D01*
X001985Y000156D02*
X001983Y000162D01*
X001960Y000171D02*
X001954Y000169D01*
X001945Y000146D02*
X001947Y000140D01*
X001945Y000156D02*
X001947Y000162D01*
X001973Y000132D02*
X001976Y000133D01*
X001985Y000156D02*
X001983Y000162D01*
X001985Y000146D02*
X001983Y000140D01*
X001957Y000132D02*
X001954Y000133D01*
X001973Y000132D02*
X001976Y000133D01*
X001957Y000132D02*
X001954Y000133D01*
X001968Y000143D02*
X001973Y000146D01*
X001974Y000152D01*
X001972Y000157D01*
X001967Y000160D01*
X001962Y000159D01*
X001958Y000156D01*
X001956Y000151D01*
X001958Y000146D01*
X001962Y000143D01*
X001968Y000143D02*
X001973Y000146D01*
X001974Y000152D01*
X001972Y000157D01*
X001967Y000160D01*
X001962Y000159D01*
X001958Y000156D01*
X001956Y000151D01*
X001958Y000146D01*
X001962Y000143D01*
M02*
