G75*
G70*
%OFA0B0*%
%FSLAX24Y24*%
%IPPOS*%
%LPD*%
%AMOC8*
5,1,8,0,0,1.08239X$1,22.5*
%
%ADD10C,0.0740*%
%ADD11R,0.0650X0.0650*%
%ADD12C,0.0650*%
%ADD13C,0.0600*%
%ADD14C,0.1700*%
%ADD15C,0.0100*%
D10*
X004044Y002161D03*
X005044Y002161D03*
X006044Y002161D03*
X008359Y004128D03*
X008465Y002151D03*
X008465Y001151D03*
X008359Y007128D03*
X008305Y008482D03*
X008305Y010482D03*
X005985Y015391D03*
X005985Y016702D03*
X005985Y018013D03*
X005985Y019324D03*
X005780Y021946D03*
X004780Y021946D03*
X003780Y021946D03*
X002985Y019324D03*
X002985Y018013D03*
X002985Y016702D03*
X002985Y015391D03*
X003821Y012793D03*
X003821Y011793D03*
X008465Y021313D03*
X008465Y022313D03*
D11*
X008365Y012917D03*
X005769Y011092D03*
D12*
X006769Y011092D03*
X007365Y012917D03*
X004237Y010269D03*
X003237Y010269D03*
D13*
X007374Y016293D02*
X007974Y016293D01*
X007974Y017293D02*
X007374Y017293D01*
X007374Y018293D02*
X007974Y018293D01*
D14*
X005902Y006135D03*
X004721Y004285D03*
X003540Y006135D03*
D15*
X002415Y000601D02*
X002415Y022863D01*
X009015Y022863D01*
X009015Y000601D01*
X002415Y000601D01*
X002415Y000644D02*
X008344Y000644D01*
X008266Y000669D01*
X008193Y000706D01*
X008127Y000755D01*
X008069Y000812D01*
X008021Y000879D01*
X007983Y000952D01*
X007958Y001029D01*
X007947Y001101D01*
X008415Y001101D01*
X008415Y001201D01*
X007947Y001201D01*
X007958Y001273D01*
X007983Y001351D01*
X008021Y001424D01*
X008069Y001490D01*
X008127Y001548D01*
X008193Y001596D01*
X008266Y001633D01*
X008288Y001640D01*
X008159Y001693D01*
X008008Y001845D01*
X007925Y002044D01*
X007925Y002259D01*
X008008Y002457D01*
X008159Y002609D01*
X008358Y002691D01*
X008573Y002691D01*
X008771Y002609D01*
X008923Y002457D01*
X009005Y002259D01*
X009005Y002044D01*
X008923Y001845D01*
X008771Y001693D01*
X008643Y001640D01*
X008665Y001633D01*
X008738Y001596D01*
X008804Y001548D01*
X008862Y001490D01*
X008910Y001424D01*
X008947Y001351D01*
X008973Y001273D01*
X008984Y001201D01*
X008516Y001201D01*
X008516Y001101D01*
X008984Y001101D01*
X008973Y001029D01*
X008947Y000952D01*
X008910Y000879D01*
X008862Y000812D01*
X008804Y000755D01*
X008738Y000706D01*
X008665Y000669D01*
X008587Y000644D01*
X008515Y000633D01*
X008515Y001101D01*
X008415Y001101D01*
X008415Y000633D01*
X008344Y000644D01*
X008415Y000644D02*
X008515Y000644D01*
X008587Y000644D02*
X009015Y000644D01*
X009015Y000742D02*
X008787Y000742D01*
X008883Y000841D02*
X009015Y000841D01*
X009015Y000940D02*
X008941Y000940D01*
X008974Y001038D02*
X009015Y001038D01*
X009015Y001137D02*
X008516Y001137D01*
X008515Y001038D02*
X008415Y001038D01*
X008415Y000940D02*
X008515Y000940D01*
X008515Y000841D02*
X008415Y000841D01*
X008415Y000742D02*
X008515Y000742D01*
X008415Y001137D02*
X002415Y001137D01*
X002415Y001235D02*
X007952Y001235D01*
X007978Y001334D02*
X002415Y001334D01*
X002415Y001432D02*
X008027Y001432D01*
X008110Y001531D02*
X002415Y001531D01*
X002415Y001629D02*
X003918Y001629D01*
X003937Y001621D02*
X004151Y001621D01*
X004350Y001704D01*
X004502Y001856D01*
X004544Y001958D01*
X004586Y001856D01*
X004738Y001704D01*
X004937Y001621D01*
X005151Y001621D01*
X005350Y001704D01*
X005502Y001856D01*
X005544Y001958D01*
X005586Y001856D01*
X005738Y001704D01*
X005937Y001621D01*
X006151Y001621D01*
X006350Y001704D01*
X006502Y001856D01*
X006584Y002054D01*
X006584Y002269D01*
X006502Y002467D01*
X006350Y002619D01*
X006151Y002701D01*
X005937Y002701D01*
X005738Y002619D01*
X005586Y002467D01*
X005544Y002365D01*
X005502Y002467D01*
X005350Y002619D01*
X005151Y002701D01*
X004937Y002701D01*
X004738Y002619D01*
X004586Y002467D01*
X004544Y002365D01*
X004502Y002467D01*
X004350Y002619D01*
X004151Y002701D01*
X003937Y002701D01*
X003738Y002619D01*
X003586Y002467D01*
X003504Y002269D01*
X003504Y002054D01*
X003586Y001856D01*
X003738Y001704D01*
X003937Y001621D01*
X004171Y001629D02*
X004918Y001629D01*
X004714Y001728D02*
X004374Y001728D01*
X004473Y001826D02*
X004615Y001826D01*
X004558Y001925D02*
X004531Y001925D01*
X004522Y002418D02*
X004566Y002418D01*
X004635Y002516D02*
X004453Y002516D01*
X004354Y002615D02*
X004734Y002615D01*
X004771Y003285D02*
X004777Y003285D01*
X004889Y003298D01*
X004999Y003323D01*
X005105Y003360D01*
X005206Y003408D01*
X005301Y003468D01*
X005389Y003538D01*
X005468Y003618D01*
X005538Y003705D01*
X005598Y003801D01*
X005647Y003902D01*
X005684Y004008D01*
X005709Y004117D01*
X005721Y004229D01*
X005721Y004235D01*
X004771Y004235D01*
X004771Y003285D01*
X004771Y003305D02*
X004671Y003305D01*
X004671Y003285D02*
X004671Y004235D01*
X003721Y004235D01*
X003721Y004229D01*
X003734Y004117D01*
X003759Y004008D01*
X003796Y003902D01*
X003845Y003801D01*
X003904Y003705D01*
X003974Y003618D01*
X004054Y003538D01*
X004142Y003468D01*
X004237Y003408D01*
X004338Y003360D01*
X004444Y003323D01*
X004553Y003298D01*
X004665Y003285D01*
X004671Y003285D01*
X004671Y003403D02*
X004771Y003403D01*
X004771Y003502D02*
X004671Y003502D01*
X004671Y003600D02*
X004771Y003600D01*
X004771Y003699D02*
X004671Y003699D01*
X004671Y003797D02*
X004771Y003797D01*
X004771Y003896D02*
X004671Y003896D01*
X004671Y003994D02*
X004771Y003994D01*
X004771Y004093D02*
X004671Y004093D01*
X004671Y004191D02*
X004771Y004191D01*
X004771Y004235D02*
X004671Y004235D01*
X004671Y004335D01*
X003721Y004335D01*
X003721Y004341D01*
X003734Y004453D01*
X003759Y004562D01*
X003796Y004668D01*
X003845Y004769D01*
X003904Y004865D01*
X003974Y004952D01*
X004054Y005032D01*
X004142Y005102D01*
X004237Y005162D01*
X004338Y005210D01*
X004444Y005247D01*
X004553Y005272D01*
X004665Y005285D01*
X004671Y005285D01*
X004671Y004335D01*
X004771Y004335D01*
X004771Y005285D01*
X004777Y005285D01*
X004889Y005272D01*
X004999Y005247D01*
X005105Y005210D01*
X005206Y005162D01*
X005301Y005102D01*
X005389Y005032D01*
X005468Y004952D01*
X005538Y004865D01*
X005598Y004769D01*
X005647Y004668D01*
X005684Y004562D01*
X005709Y004453D01*
X005721Y004341D01*
X005721Y004335D01*
X004771Y004335D01*
X004771Y004235D01*
X004771Y004290D02*
X007842Y004290D01*
X007819Y004235D02*
X007819Y004020D01*
X007901Y003822D01*
X008053Y003670D01*
X008252Y003588D01*
X008466Y003588D01*
X008665Y003670D01*
X008817Y003822D01*
X008899Y004020D01*
X008899Y004235D01*
X008817Y004433D01*
X008665Y004585D01*
X008466Y004668D01*
X008252Y004668D01*
X008053Y004585D01*
X007901Y004433D01*
X007819Y004235D01*
X007819Y004191D02*
X005717Y004191D01*
X005703Y004093D02*
X007819Y004093D01*
X007830Y003994D02*
X005679Y003994D01*
X005644Y003896D02*
X007871Y003896D01*
X007926Y003797D02*
X005596Y003797D01*
X005533Y003699D02*
X008024Y003699D01*
X008221Y003600D02*
X005451Y003600D01*
X005343Y003502D02*
X009015Y003502D01*
X009015Y003600D02*
X008497Y003600D01*
X008694Y003699D02*
X009015Y003699D01*
X009015Y003797D02*
X008792Y003797D01*
X008848Y003896D02*
X009015Y003896D01*
X009015Y003994D02*
X008888Y003994D01*
X008899Y004093D02*
X009015Y004093D01*
X009015Y004191D02*
X008899Y004191D01*
X008876Y004290D02*
X009015Y004290D01*
X009015Y004389D02*
X008835Y004389D01*
X008763Y004487D02*
X009015Y004487D01*
X009015Y004586D02*
X008664Y004586D01*
X009015Y004684D02*
X005639Y004684D01*
X005676Y004586D02*
X008054Y004586D01*
X007955Y004487D02*
X005701Y004487D01*
X005716Y004389D02*
X007883Y004389D01*
X008174Y002615D02*
X006354Y002615D01*
X006453Y002516D02*
X008067Y002516D01*
X007991Y002418D02*
X006522Y002418D01*
X006563Y002319D02*
X007950Y002319D01*
X007925Y002221D02*
X006584Y002221D01*
X006584Y002122D02*
X007925Y002122D01*
X007934Y002024D02*
X006571Y002024D01*
X006531Y001925D02*
X007975Y001925D01*
X008026Y001826D02*
X006473Y001826D01*
X006374Y001728D02*
X008125Y001728D01*
X008258Y001629D02*
X006171Y001629D01*
X005918Y001629D02*
X005171Y001629D01*
X005374Y001728D02*
X005714Y001728D01*
X005615Y001826D02*
X005473Y001826D01*
X005531Y001925D02*
X005558Y001925D01*
X005566Y002418D02*
X005522Y002418D01*
X005453Y002516D02*
X005635Y002516D01*
X005734Y002615D02*
X005354Y002615D01*
X005195Y003403D02*
X009015Y003403D01*
X009015Y003305D02*
X004920Y003305D01*
X004523Y003305D02*
X002415Y003305D01*
X002415Y003403D02*
X004248Y003403D01*
X004100Y003502D02*
X002415Y003502D01*
X002415Y003600D02*
X003992Y003600D01*
X003910Y003699D02*
X002415Y003699D01*
X002415Y003797D02*
X003847Y003797D01*
X003799Y003896D02*
X002415Y003896D01*
X002415Y003994D02*
X003763Y003994D01*
X003739Y004093D02*
X002415Y004093D01*
X002415Y004191D02*
X003725Y004191D01*
X003727Y004389D02*
X002415Y004389D01*
X002415Y004487D02*
X003742Y004487D01*
X003767Y004586D02*
X002415Y004586D01*
X002415Y004684D02*
X003804Y004684D01*
X003853Y004783D02*
X002415Y004783D01*
X002415Y004881D02*
X003918Y004881D01*
X004002Y004980D02*
X002415Y004980D01*
X002415Y005078D02*
X004112Y005078D01*
X004269Y005177D02*
X003829Y005177D01*
X003817Y005173D02*
X003923Y005210D01*
X004025Y005259D01*
X004120Y005319D01*
X004208Y005389D01*
X004287Y005468D01*
X004357Y005556D01*
X004417Y005651D01*
X004465Y005752D01*
X004503Y005858D01*
X004528Y005968D01*
X004540Y006079D01*
X004540Y006085D01*
X003590Y006085D01*
X003590Y005135D01*
X003596Y005135D01*
X003708Y005148D01*
X003817Y005173D01*
X003590Y005177D02*
X003490Y005177D01*
X003484Y005135D02*
X003490Y005135D01*
X003490Y006085D01*
X003590Y006085D01*
X003590Y006185D01*
X004540Y006185D01*
X004540Y006192D01*
X004528Y006303D01*
X004503Y006413D01*
X004465Y006519D01*
X004417Y006620D01*
X004357Y006715D01*
X004287Y006803D01*
X004208Y006882D01*
X004120Y006952D01*
X004025Y007012D01*
X003923Y007061D01*
X003817Y007098D01*
X003708Y007123D01*
X003596Y007135D01*
X003590Y007135D01*
X003590Y006186D01*
X003490Y006186D01*
X003490Y007135D01*
X003484Y007135D01*
X003372Y007123D01*
X003263Y007098D01*
X003157Y007061D01*
X003056Y007012D01*
X002961Y006952D01*
X002873Y006882D01*
X002793Y006803D01*
X002723Y006715D01*
X002664Y006620D01*
X002615Y006519D01*
X002578Y006413D01*
X002553Y006303D01*
X002540Y006192D01*
X002540Y006185D01*
X003490Y006185D01*
X003490Y006085D01*
X002540Y006085D01*
X002540Y006079D01*
X002553Y005968D01*
X002578Y005858D01*
X002615Y005752D01*
X002664Y005651D01*
X002723Y005556D01*
X002793Y005468D01*
X002873Y005389D01*
X002961Y005319D01*
X003056Y005259D01*
X003157Y005210D01*
X003263Y005173D01*
X003372Y005148D01*
X003484Y005135D01*
X003490Y005275D02*
X003590Y005275D01*
X003590Y005374D02*
X003490Y005374D01*
X003490Y005473D02*
X003590Y005473D01*
X003590Y005571D02*
X003490Y005571D01*
X003490Y005670D02*
X003590Y005670D01*
X003590Y005768D02*
X003490Y005768D01*
X003490Y005867D02*
X003590Y005867D01*
X003590Y005965D02*
X003490Y005965D01*
X003490Y006064D02*
X003590Y006064D01*
X003590Y006162D02*
X004882Y006162D01*
X004882Y006064D02*
X004538Y006064D01*
X004527Y005965D02*
X004892Y005965D01*
X004882Y006001D02*
X004952Y005742D01*
X005086Y005509D01*
X005276Y005319D01*
X005509Y005185D01*
X005768Y005115D01*
X006037Y005115D01*
X006296Y005185D01*
X006529Y005319D01*
X006719Y005509D01*
X006853Y005742D01*
X006922Y006001D01*
X006922Y006270D01*
X006853Y006529D01*
X006719Y006762D01*
X006529Y006952D01*
X006296Y007086D01*
X006037Y007155D01*
X005768Y007155D01*
X005509Y007086D01*
X005276Y006952D01*
X005086Y006762D01*
X004952Y006529D01*
X004882Y006270D01*
X004882Y006001D01*
X004918Y005867D02*
X004504Y005867D01*
X004471Y005768D02*
X004945Y005768D01*
X004994Y005670D02*
X004426Y005670D01*
X004367Y005571D02*
X005050Y005571D01*
X005123Y005473D02*
X004290Y005473D01*
X004189Y005374D02*
X005221Y005374D01*
X005352Y005275D02*
X004862Y005275D01*
X004771Y005275D02*
X004671Y005275D01*
X004580Y005275D02*
X004051Y005275D01*
X003590Y006261D02*
X003490Y006261D01*
X003490Y006359D02*
X003590Y006359D01*
X003590Y006458D02*
X003490Y006458D01*
X003490Y006556D02*
X003590Y006556D01*
X003590Y006655D02*
X003490Y006655D01*
X003490Y006754D02*
X003590Y006754D01*
X003590Y006852D02*
X003490Y006852D01*
X003490Y006951D02*
X003590Y006951D01*
X003590Y007049D02*
X003490Y007049D01*
X003133Y007049D02*
X002415Y007049D01*
X002415Y006951D02*
X002959Y006951D01*
X002843Y006852D02*
X002415Y006852D01*
X002415Y006754D02*
X002754Y006754D01*
X002686Y006655D02*
X002415Y006655D01*
X002415Y006556D02*
X002633Y006556D01*
X002594Y006458D02*
X002415Y006458D01*
X002415Y006359D02*
X002566Y006359D01*
X002548Y006261D02*
X002415Y006261D01*
X002415Y006162D02*
X003490Y006162D01*
X003947Y007049D02*
X005445Y007049D01*
X005275Y006951D02*
X004122Y006951D01*
X004238Y006852D02*
X005177Y006852D01*
X005081Y006754D02*
X004326Y006754D01*
X004395Y006655D02*
X005025Y006655D01*
X004968Y006556D02*
X004447Y006556D01*
X004487Y006458D02*
X004933Y006458D01*
X004906Y006359D02*
X004515Y006359D01*
X004532Y006261D02*
X004882Y006261D01*
X004771Y005177D02*
X004671Y005177D01*
X004671Y005078D02*
X004771Y005078D01*
X004771Y004980D02*
X004671Y004980D01*
X004671Y004881D02*
X004771Y004881D01*
X004771Y004783D02*
X004671Y004783D01*
X004671Y004684D02*
X004771Y004684D01*
X004771Y004586D02*
X004671Y004586D01*
X004671Y004487D02*
X004771Y004487D01*
X004771Y004389D02*
X004671Y004389D01*
X004671Y004290D02*
X002415Y004290D01*
X002415Y005177D02*
X003252Y005177D01*
X003029Y005275D02*
X002415Y005275D01*
X002415Y005374D02*
X002891Y005374D01*
X002790Y005473D02*
X002415Y005473D01*
X002415Y005571D02*
X002714Y005571D01*
X002655Y005670D02*
X002415Y005670D01*
X002415Y005768D02*
X002609Y005768D01*
X002576Y005867D02*
X002415Y005867D01*
X002415Y005965D02*
X002553Y005965D01*
X002542Y006064D02*
X002415Y006064D01*
X002415Y007148D02*
X005740Y007148D01*
X006065Y007148D02*
X007819Y007148D01*
X007819Y007235D02*
X007819Y007020D01*
X007901Y006822D01*
X008053Y006670D01*
X008252Y006588D01*
X008466Y006588D01*
X008665Y006670D01*
X008817Y006822D01*
X008899Y007020D01*
X008899Y007235D01*
X008817Y007433D01*
X008665Y007585D01*
X008466Y007668D01*
X008252Y007668D01*
X008053Y007585D01*
X007901Y007433D01*
X007819Y007235D01*
X007824Y007246D02*
X002415Y007246D01*
X002415Y007345D02*
X007865Y007345D01*
X007911Y007443D02*
X002415Y007443D01*
X002415Y007542D02*
X008010Y007542D01*
X008186Y007640D02*
X002415Y007640D01*
X002415Y007739D02*
X009015Y007739D01*
X009015Y007640D02*
X008532Y007640D01*
X008412Y007942D02*
X008611Y008024D01*
X008763Y008176D01*
X008845Y008374D01*
X008845Y008589D01*
X008763Y008788D01*
X008611Y008940D01*
X008412Y009022D01*
X008197Y009022D01*
X007999Y008940D01*
X007847Y008788D01*
X007765Y008589D01*
X007765Y008374D01*
X007847Y008176D01*
X007999Y008024D01*
X008197Y007942D01*
X008412Y007942D01*
X008621Y008035D02*
X009015Y008035D01*
X009015Y008133D02*
X008720Y008133D01*
X008786Y008232D02*
X009015Y008232D01*
X009015Y008330D02*
X008826Y008330D01*
X008845Y008429D02*
X009015Y008429D01*
X009015Y008527D02*
X008845Y008527D01*
X008830Y008626D02*
X009015Y008626D01*
X009015Y008724D02*
X008789Y008724D01*
X008727Y008823D02*
X009015Y008823D01*
X009015Y008922D02*
X008629Y008922D01*
X008416Y009020D02*
X009015Y009020D01*
X009015Y009119D02*
X002415Y009119D01*
X002415Y009217D02*
X009015Y009217D01*
X009015Y009316D02*
X002415Y009316D01*
X002415Y009414D02*
X009015Y009414D01*
X009015Y009513D02*
X002415Y009513D01*
X002415Y009611D02*
X009015Y009611D01*
X009015Y009710D02*
X002415Y009710D01*
X002415Y009808D02*
X003118Y009808D01*
X003126Y009806D02*
X003200Y009794D01*
X003218Y009794D01*
X003218Y010250D01*
X003256Y010250D01*
X003256Y009794D01*
X003274Y009794D01*
X003348Y009806D01*
X003419Y009829D01*
X003486Y009863D01*
X003546Y009907D01*
X003899Y009907D01*
X003957Y009850D02*
X004139Y009774D01*
X004335Y009774D01*
X004517Y009850D01*
X004657Y009989D01*
X004732Y010171D01*
X004732Y010368D01*
X004657Y010550D01*
X004517Y010689D01*
X004335Y010764D01*
X004139Y010764D01*
X003957Y010689D01*
X003817Y010550D01*
X003742Y010368D01*
X003742Y010171D01*
X003817Y009989D01*
X003957Y009850D01*
X004056Y009808D02*
X003356Y009808D01*
X003256Y009808D02*
X003218Y009808D01*
X003126Y009806D02*
X003055Y009829D01*
X002988Y009863D01*
X002928Y009907D01*
X002415Y009907D01*
X002415Y010006D02*
X002841Y010006D01*
X002831Y010020D02*
X002875Y009960D01*
X002928Y009907D01*
X002831Y010020D02*
X002797Y010087D01*
X002774Y010158D01*
X002762Y010232D01*
X002762Y010250D01*
X003218Y010250D01*
X003218Y010288D01*
X002762Y010288D01*
X002762Y010307D01*
X002774Y010381D01*
X002797Y010452D01*
X002831Y010518D01*
X002875Y010579D01*
X002928Y010632D01*
X002988Y010676D01*
X003055Y010709D01*
X003126Y010733D01*
X003200Y010744D01*
X003218Y010744D01*
X003218Y010288D01*
X003256Y010288D01*
X003712Y010288D01*
X003712Y010307D01*
X003700Y010381D01*
X003677Y010452D01*
X003643Y010518D01*
X003599Y010579D01*
X003546Y010632D01*
X003486Y010676D01*
X003419Y010709D01*
X003348Y010733D01*
X003274Y010744D01*
X003256Y010744D01*
X003256Y010288D01*
X003256Y010250D01*
X003712Y010250D01*
X003712Y010232D01*
X003700Y010158D01*
X003677Y010087D01*
X003643Y010020D01*
X003599Y009960D01*
X003546Y009907D01*
X003632Y010006D02*
X003810Y010006D01*
X003770Y010104D02*
X003683Y010104D01*
X003707Y010203D02*
X003742Y010203D01*
X003742Y010301D02*
X003712Y010301D01*
X003694Y010400D02*
X003755Y010400D01*
X003796Y010498D02*
X003653Y010498D01*
X003581Y010597D02*
X003864Y010597D01*
X003972Y010695D02*
X003447Y010695D01*
X003256Y010695D02*
X003218Y010695D01*
X003218Y010597D02*
X003256Y010597D01*
X003256Y010498D02*
X003218Y010498D01*
X003218Y010400D02*
X003256Y010400D01*
X003256Y010301D02*
X003218Y010301D01*
X003218Y010203D02*
X003256Y010203D01*
X003256Y010104D02*
X003218Y010104D01*
X003218Y010006D02*
X003256Y010006D01*
X003256Y009907D02*
X003218Y009907D01*
X002893Y010597D02*
X002415Y010597D01*
X002415Y010695D02*
X003027Y010695D01*
X002821Y010498D02*
X002415Y010498D01*
X002415Y010400D02*
X002780Y010400D01*
X002762Y010301D02*
X002415Y010301D01*
X002415Y010203D02*
X002767Y010203D01*
X002791Y010104D02*
X002415Y010104D01*
X002415Y010794D02*
X005274Y010794D01*
X005274Y010697D02*
X005373Y010597D01*
X006164Y010597D01*
X006263Y010697D01*
X006263Y011488D01*
X006164Y011587D01*
X005373Y011587D01*
X005274Y011488D01*
X005274Y010697D01*
X005275Y010695D02*
X004502Y010695D01*
X004609Y010597D02*
X007768Y010597D01*
X007765Y010589D02*
X007847Y010788D01*
X007999Y010940D01*
X008197Y011022D01*
X008412Y011022D01*
X008611Y010940D01*
X008763Y010788D01*
X008845Y010589D01*
X008845Y010374D01*
X008763Y010176D01*
X008611Y010024D01*
X008412Y009942D01*
X008197Y009942D01*
X007999Y010024D01*
X007847Y010176D01*
X007765Y010374D01*
X007765Y010589D01*
X007765Y010498D02*
X004678Y010498D01*
X004719Y010400D02*
X007765Y010400D01*
X007795Y010301D02*
X004732Y010301D01*
X004732Y010203D02*
X007836Y010203D01*
X007919Y010104D02*
X004704Y010104D01*
X004663Y010006D02*
X008044Y010006D01*
X007809Y010695D02*
X007030Y010695D01*
X007017Y010686D02*
X007078Y010730D01*
X007131Y010783D01*
X007175Y010843D01*
X007209Y010910D01*
X007232Y010981D01*
X007243Y011055D01*
X007243Y011073D01*
X006788Y011073D01*
X006788Y011111D01*
X007243Y011111D01*
X007243Y011129D01*
X007232Y011203D01*
X007209Y011274D01*
X007175Y011341D01*
X007131Y011402D01*
X007078Y011454D01*
X007017Y011498D01*
X006951Y011532D01*
X006880Y011555D01*
X006806Y011567D01*
X006787Y011567D01*
X006787Y011111D01*
X006750Y011111D01*
X006750Y011567D01*
X006731Y011567D01*
X006657Y011555D01*
X006586Y011532D01*
X006520Y011498D01*
X006459Y011454D01*
X006406Y011402D01*
X006362Y011341D01*
X006328Y011274D01*
X006305Y011203D01*
X006294Y011129D01*
X006294Y011111D01*
X006749Y011111D01*
X006749Y011073D01*
X006294Y011073D01*
X006294Y011055D01*
X006305Y010981D01*
X006328Y010910D01*
X006362Y010843D01*
X006406Y010783D01*
X006459Y010730D01*
X006520Y010686D01*
X006586Y010652D01*
X006657Y010629D01*
X006731Y010617D01*
X006750Y010617D01*
X006750Y011073D01*
X006787Y011073D01*
X006787Y010617D01*
X006806Y010617D01*
X006880Y010629D01*
X006951Y010652D01*
X007017Y010686D01*
X007139Y010794D02*
X007853Y010794D01*
X007952Y010892D02*
X007200Y010892D01*
X007233Y010991D02*
X008123Y010991D01*
X008487Y010991D02*
X009015Y010991D01*
X009015Y011089D02*
X006788Y011089D01*
X006749Y011089D02*
X006263Y011089D01*
X006263Y010991D02*
X006304Y010991D01*
X006337Y010892D02*
X006263Y010892D01*
X006263Y010794D02*
X006398Y010794D01*
X006506Y010695D02*
X006262Y010695D01*
X006263Y011188D02*
X006303Y011188D01*
X006334Y011287D02*
X006263Y011287D01*
X006263Y011385D02*
X006394Y011385D01*
X006499Y011484D02*
X006263Y011484D01*
X006169Y011582D02*
X009015Y011582D01*
X009015Y011484D02*
X007038Y011484D01*
X007143Y011385D02*
X009015Y011385D01*
X009015Y011287D02*
X007203Y011287D01*
X007234Y011188D02*
X009015Y011188D01*
X009015Y010892D02*
X008658Y010892D01*
X008756Y010794D02*
X009015Y010794D01*
X009015Y010695D02*
X008801Y010695D01*
X008842Y010597D02*
X009015Y010597D01*
X009015Y010498D02*
X008845Y010498D01*
X008845Y010400D02*
X009015Y010400D01*
X009015Y010301D02*
X008814Y010301D01*
X008774Y010203D02*
X009015Y010203D01*
X009015Y010104D02*
X008691Y010104D01*
X008566Y010006D02*
X009015Y010006D01*
X009015Y009907D02*
X004575Y009907D01*
X004418Y009808D02*
X009015Y009808D01*
X008193Y009020D02*
X002415Y009020D01*
X002415Y008922D02*
X007981Y008922D01*
X007882Y008823D02*
X002415Y008823D01*
X002415Y008724D02*
X007821Y008724D01*
X007780Y008626D02*
X002415Y008626D01*
X002415Y008527D02*
X007765Y008527D01*
X007765Y008429D02*
X002415Y008429D01*
X002415Y008330D02*
X007783Y008330D01*
X007824Y008232D02*
X002415Y008232D01*
X002415Y008133D02*
X007890Y008133D01*
X007988Y008035D02*
X002415Y008035D01*
X002415Y007936D02*
X009015Y007936D01*
X009015Y007838D02*
X002415Y007838D01*
X002415Y010892D02*
X005274Y010892D01*
X005274Y010991D02*
X002415Y010991D01*
X002415Y011089D02*
X005274Y011089D01*
X005274Y011188D02*
X002415Y011188D01*
X002415Y011287D02*
X003697Y011287D01*
X003699Y011286D02*
X003780Y011273D01*
X003791Y011273D01*
X003791Y011763D01*
X003851Y011763D01*
X003851Y011823D01*
X004341Y011823D01*
X004341Y011834D01*
X004328Y011915D01*
X004303Y011993D01*
X004266Y012066D01*
X004218Y012132D01*
X004160Y012190D01*
X004093Y012238D01*
X004021Y012275D01*
X003998Y012282D01*
X004127Y012335D01*
X004279Y012487D01*
X004361Y012686D01*
X004361Y012900D01*
X004279Y013099D01*
X004127Y013251D01*
X003928Y013333D01*
X003714Y013333D01*
X003515Y013251D01*
X003363Y013099D01*
X003281Y012900D01*
X003281Y012686D01*
X003363Y012487D01*
X003515Y012335D01*
X003643Y012282D01*
X003621Y012275D01*
X003548Y012238D01*
X003482Y012190D01*
X003424Y012132D01*
X003376Y012066D01*
X003339Y011993D01*
X003314Y011915D01*
X003301Y011834D01*
X003301Y011823D01*
X003791Y011823D01*
X003791Y011763D01*
X003301Y011763D01*
X003301Y011752D01*
X003314Y011671D01*
X003339Y011593D01*
X003376Y011520D01*
X003424Y011454D01*
X003482Y011396D01*
X003548Y011348D01*
X003621Y011311D01*
X003699Y011286D01*
X003791Y011287D02*
X003851Y011287D01*
X003851Y011273D02*
X003862Y011273D01*
X003943Y011286D01*
X004021Y011311D01*
X004093Y011348D01*
X004160Y011396D01*
X004218Y011454D01*
X004266Y011520D01*
X004303Y011593D01*
X004328Y011671D01*
X004341Y011752D01*
X004341Y011763D01*
X003851Y011763D01*
X003851Y011273D01*
X003945Y011287D02*
X005274Y011287D01*
X005274Y011385D02*
X004144Y011385D01*
X004239Y011484D02*
X005274Y011484D01*
X005368Y011582D02*
X004297Y011582D01*
X004330Y011681D02*
X009015Y011681D01*
X009015Y011779D02*
X003851Y011779D01*
X003791Y011779D02*
X002415Y011779D01*
X002415Y011681D02*
X003312Y011681D01*
X003345Y011582D02*
X002415Y011582D01*
X002415Y011484D02*
X003403Y011484D01*
X003498Y011385D02*
X002415Y011385D01*
X002415Y011878D02*
X003308Y011878D01*
X003334Y011976D02*
X002415Y011976D01*
X002415Y012075D02*
X003383Y012075D01*
X003466Y012173D02*
X002415Y012173D01*
X002415Y012272D02*
X003616Y012272D01*
X003480Y012371D02*
X002415Y012371D01*
X002415Y012469D02*
X003381Y012469D01*
X003330Y012568D02*
X002415Y012568D01*
X002415Y012666D02*
X003289Y012666D01*
X003281Y012765D02*
X002415Y012765D01*
X002415Y012863D02*
X003281Y012863D01*
X003306Y012962D02*
X002415Y012962D01*
X002415Y013060D02*
X003347Y013060D01*
X003423Y013159D02*
X002415Y013159D01*
X002415Y013257D02*
X003531Y013257D01*
X004026Y012272D02*
X009015Y012272D01*
X009015Y012371D02*
X004162Y012371D01*
X004261Y012469D02*
X007208Y012469D01*
X007183Y012477D02*
X007254Y012454D01*
X007328Y012442D01*
X007346Y012442D01*
X007346Y012898D01*
X007384Y012898D01*
X007384Y012442D01*
X007402Y012442D01*
X007476Y012454D01*
X007547Y012477D01*
X007614Y012511D01*
X007674Y012555D01*
X007727Y012608D01*
X007771Y012668D01*
X007805Y012735D01*
X007828Y012806D01*
X007840Y012880D01*
X007840Y012898D01*
X007384Y012898D01*
X007384Y012936D01*
X007840Y012936D01*
X007840Y012955D01*
X007828Y013029D01*
X007805Y013100D01*
X007771Y013166D01*
X007727Y013227D01*
X007674Y013280D01*
X007614Y013324D01*
X007547Y013358D01*
X007476Y013381D01*
X007402Y013392D01*
X007384Y013392D01*
X007384Y012937D01*
X007346Y012937D01*
X007346Y013392D01*
X007328Y013392D01*
X007254Y013381D01*
X007183Y013358D01*
X007116Y013324D01*
X007056Y013280D01*
X007003Y013227D01*
X006959Y013166D01*
X006925Y013100D01*
X006902Y013029D01*
X006890Y012955D01*
X006890Y012936D01*
X007346Y012936D01*
X007346Y012898D01*
X006890Y012898D01*
X006890Y012880D01*
X006902Y012806D01*
X006925Y012735D01*
X006959Y012668D01*
X007003Y012608D01*
X007056Y012555D01*
X007116Y012511D01*
X007183Y012477D01*
X007346Y012469D02*
X007384Y012469D01*
X007384Y012568D02*
X007346Y012568D01*
X007346Y012666D02*
X007384Y012666D01*
X007384Y012765D02*
X007346Y012765D01*
X007346Y012863D02*
X007384Y012863D01*
X007384Y012962D02*
X007346Y012962D01*
X007346Y013060D02*
X007384Y013060D01*
X007384Y013159D02*
X007346Y013159D01*
X007346Y013257D02*
X007384Y013257D01*
X007384Y013356D02*
X007346Y013356D01*
X007180Y013356D02*
X002415Y013356D01*
X002415Y013455D02*
X009015Y013455D01*
X009015Y013553D02*
X002415Y013553D01*
X002415Y013652D02*
X009015Y013652D01*
X009015Y013750D02*
X002415Y013750D01*
X002415Y013849D02*
X009015Y013849D01*
X009015Y013947D02*
X002415Y013947D01*
X002415Y014046D02*
X009015Y014046D01*
X009015Y014144D02*
X002415Y014144D01*
X002415Y014243D02*
X009015Y014243D01*
X009015Y014341D02*
X002415Y014341D01*
X002415Y014440D02*
X009015Y014440D01*
X009015Y014539D02*
X002415Y014539D01*
X002415Y014637D02*
X009015Y014637D01*
X009015Y014736D02*
X002415Y014736D01*
X002415Y014834D02*
X009015Y014834D01*
X009015Y014933D02*
X006289Y014933D01*
X006291Y014934D02*
X006443Y015085D01*
X006525Y015284D01*
X006525Y015499D01*
X006443Y015697D01*
X006291Y015849D01*
X006092Y015931D01*
X005878Y015931D01*
X005679Y015849D01*
X005527Y015697D01*
X005445Y015499D01*
X005445Y015284D01*
X005527Y015085D01*
X005679Y014934D01*
X005878Y014851D01*
X006092Y014851D01*
X006291Y014934D01*
X006389Y015031D02*
X009015Y015031D01*
X009015Y015130D02*
X006461Y015130D01*
X006502Y015228D02*
X009015Y015228D01*
X009015Y015327D02*
X006525Y015327D01*
X006525Y015425D02*
X009015Y015425D01*
X009015Y015524D02*
X006515Y015524D01*
X006474Y015622D02*
X009015Y015622D01*
X009015Y015721D02*
X006419Y015721D01*
X006320Y015820D02*
X009015Y015820D01*
X009015Y015918D02*
X008264Y015918D01*
X008240Y015894D02*
X008372Y016027D01*
X008444Y016199D01*
X008444Y016386D01*
X008372Y016559D01*
X008240Y016691D01*
X008067Y016763D01*
X007281Y016763D01*
X007108Y016691D01*
X006976Y016559D01*
X006904Y016386D01*
X006904Y016199D01*
X006976Y016027D01*
X007108Y015894D01*
X007281Y015823D01*
X008067Y015823D01*
X008240Y015894D01*
X008362Y016017D02*
X009015Y016017D01*
X009015Y016115D02*
X008409Y016115D01*
X008444Y016214D02*
X009015Y016214D01*
X009015Y016312D02*
X008444Y016312D01*
X008434Y016411D02*
X009015Y016411D01*
X009015Y016509D02*
X008393Y016509D01*
X008324Y016608D02*
X009015Y016608D01*
X009015Y016706D02*
X008204Y016706D01*
X008067Y016823D02*
X008240Y016894D01*
X008372Y017027D01*
X008444Y017199D01*
X009015Y017199D01*
X009015Y017101D02*
X008403Y017101D01*
X008444Y017199D02*
X008444Y017386D01*
X008372Y017559D01*
X008240Y017691D01*
X008067Y017763D01*
X007281Y017763D01*
X007108Y017691D01*
X006976Y017559D01*
X006904Y017386D01*
X006904Y017199D01*
X006197Y017199D01*
X006291Y017160D02*
X006092Y017242D01*
X005878Y017242D01*
X005679Y017160D01*
X005527Y017008D01*
X005445Y016810D01*
X005445Y016595D01*
X005527Y016396D01*
X005679Y016245D01*
X005878Y016162D01*
X006092Y016162D01*
X006291Y016245D01*
X006443Y016396D01*
X006525Y016595D01*
X006525Y016810D01*
X006443Y017008D01*
X006291Y017160D01*
X006350Y017101D02*
X006945Y017101D01*
X006976Y017027D02*
X006904Y017199D01*
X006904Y017298D02*
X002415Y017298D01*
X002415Y017396D02*
X006908Y017396D01*
X006949Y017495D02*
X006144Y017495D01*
X006092Y017473D02*
X006291Y017556D01*
X006443Y017707D01*
X006525Y017906D01*
X006525Y018121D01*
X006443Y018319D01*
X006291Y018471D01*
X006092Y018553D01*
X005878Y018553D01*
X005679Y018471D01*
X005527Y018319D01*
X005445Y018121D01*
X005445Y017906D01*
X005527Y017707D01*
X005679Y017556D01*
X005878Y017473D01*
X006092Y017473D01*
X006329Y017593D02*
X007010Y017593D01*
X007109Y017692D02*
X006427Y017692D01*
X006477Y017790D02*
X009015Y017790D01*
X009015Y017692D02*
X008239Y017692D01*
X008338Y017593D02*
X009015Y017593D01*
X009015Y017495D02*
X008399Y017495D01*
X008440Y017396D02*
X009015Y017396D01*
X009015Y017298D02*
X008444Y017298D01*
X008348Y017002D02*
X009015Y017002D01*
X009015Y016904D02*
X008249Y016904D01*
X008067Y016823D02*
X007281Y016823D01*
X007108Y016894D01*
X006976Y017027D01*
X007000Y017002D02*
X006445Y017002D01*
X006486Y016904D02*
X007099Y016904D01*
X007144Y016706D02*
X006525Y016706D01*
X006525Y016608D02*
X007024Y016608D01*
X006955Y016509D02*
X006490Y016509D01*
X006449Y016411D02*
X006914Y016411D01*
X006904Y016312D02*
X006359Y016312D01*
X006216Y016214D02*
X006904Y016214D01*
X006939Y016115D02*
X002415Y016115D01*
X002415Y016017D02*
X006986Y016017D01*
X007084Y015918D02*
X006124Y015918D01*
X005846Y015918D02*
X003124Y015918D01*
X003092Y015931D02*
X002878Y015931D01*
X002679Y015849D01*
X002527Y015697D01*
X002445Y015499D01*
X002445Y015284D01*
X002527Y015085D01*
X002679Y014934D01*
X002878Y014851D01*
X003092Y014851D01*
X003291Y014934D01*
X003443Y015085D01*
X003525Y015284D01*
X003525Y015499D01*
X003443Y015697D01*
X003291Y015849D01*
X003092Y015931D01*
X003092Y016162D02*
X003291Y016245D01*
X003443Y016396D01*
X003525Y016595D01*
X003525Y016810D01*
X003443Y017008D01*
X003291Y017160D01*
X003092Y017242D01*
X002878Y017242D01*
X002679Y017160D01*
X002527Y017008D01*
X002445Y016810D01*
X002445Y016595D01*
X002527Y016396D01*
X002679Y016245D01*
X002878Y016162D01*
X003092Y016162D01*
X003216Y016214D02*
X005754Y016214D01*
X005611Y016312D02*
X003359Y016312D01*
X003449Y016411D02*
X005521Y016411D01*
X005480Y016509D02*
X003490Y016509D01*
X003525Y016608D02*
X005445Y016608D01*
X005445Y016706D02*
X003525Y016706D01*
X003525Y016805D02*
X005445Y016805D01*
X005484Y016904D02*
X003486Y016904D01*
X003445Y017002D02*
X005525Y017002D01*
X005620Y017101D02*
X003350Y017101D01*
X003197Y017199D02*
X005773Y017199D01*
X005826Y017495D02*
X003144Y017495D01*
X003092Y017473D02*
X003291Y017556D01*
X003443Y017707D01*
X003525Y017906D01*
X003525Y018121D01*
X003443Y018319D01*
X003291Y018471D01*
X003092Y018553D01*
X002878Y018553D01*
X002679Y018471D01*
X002527Y018319D01*
X002445Y018121D01*
X002445Y017906D01*
X002527Y017707D01*
X002679Y017556D01*
X002878Y017473D01*
X003092Y017473D01*
X003329Y017593D02*
X005641Y017593D01*
X005543Y017692D02*
X003427Y017692D01*
X003477Y017790D02*
X005493Y017790D01*
X005452Y017889D02*
X003518Y017889D01*
X003525Y017988D02*
X005445Y017988D01*
X005445Y018086D02*
X003525Y018086D01*
X003499Y018185D02*
X005471Y018185D01*
X005512Y018283D02*
X003458Y018283D01*
X003380Y018382D02*
X005590Y018382D01*
X005701Y018480D02*
X003269Y018480D01*
X003092Y018784D02*
X003291Y018867D01*
X003443Y019019D01*
X003525Y019217D01*
X003525Y019432D01*
X003443Y019630D01*
X003291Y019782D01*
X003092Y019864D01*
X002878Y019864D01*
X002679Y019782D01*
X002527Y019630D01*
X002445Y019432D01*
X002445Y019217D01*
X002527Y019019D01*
X002679Y018867D01*
X002878Y018784D01*
X003092Y018784D01*
X003299Y018874D02*
X005723Y018874D01*
X005712Y018880D02*
X005785Y018843D01*
X005863Y018817D01*
X005944Y018804D01*
X005946Y018804D01*
X005946Y019286D01*
X005465Y019286D01*
X005465Y019283D01*
X005478Y019203D01*
X005503Y019125D01*
X005540Y019052D01*
X005588Y018986D01*
X005646Y018928D01*
X005712Y018880D01*
X005601Y018973D02*
X003397Y018973D01*
X003465Y019071D02*
X005530Y019071D01*
X005488Y019170D02*
X003506Y019170D01*
X003525Y019269D02*
X005467Y019269D01*
X005465Y019363D02*
X005946Y019363D01*
X005946Y019286D01*
X006024Y019286D01*
X006024Y019363D01*
X006505Y019363D01*
X006505Y019365D01*
X006492Y019446D01*
X006467Y019524D01*
X006430Y019597D01*
X006382Y019663D01*
X009015Y019663D01*
X009015Y019761D02*
X006268Y019761D01*
X006258Y019769D02*
X006185Y019806D01*
X006107Y019832D01*
X006026Y019844D01*
X006024Y019844D01*
X006024Y019363D01*
X005946Y019363D01*
X005946Y019844D01*
X005944Y019844D01*
X005863Y019832D01*
X005785Y019806D01*
X005712Y019769D01*
X005646Y019721D01*
X005588Y019663D01*
X003410Y019663D01*
X003470Y019564D02*
X005524Y019564D01*
X005540Y019597D02*
X005503Y019524D01*
X005478Y019446D01*
X005465Y019365D01*
X005465Y019363D01*
X005465Y019367D02*
X003525Y019367D01*
X003511Y019466D02*
X005484Y019466D01*
X005540Y019597D02*
X005588Y019663D01*
X005702Y019761D02*
X003312Y019761D01*
X003103Y019860D02*
X009015Y019860D01*
X009015Y019958D02*
X002415Y019958D01*
X002415Y019860D02*
X002867Y019860D01*
X002658Y019761D02*
X002415Y019761D01*
X002415Y019663D02*
X002560Y019663D01*
X002500Y019564D02*
X002415Y019564D01*
X002415Y019466D02*
X002459Y019466D01*
X002445Y019367D02*
X002415Y019367D01*
X002415Y019269D02*
X002445Y019269D01*
X002464Y019170D02*
X002415Y019170D01*
X002415Y019071D02*
X002505Y019071D01*
X002573Y018973D02*
X002415Y018973D01*
X002415Y018874D02*
X002671Y018874D01*
X002415Y018776D02*
X009015Y018776D01*
X009015Y018874D02*
X006247Y018874D01*
X006258Y018880D02*
X006324Y018928D01*
X006382Y018986D01*
X006430Y019052D01*
X006467Y019125D01*
X006492Y019203D01*
X006505Y019283D01*
X006505Y019286D01*
X006024Y019286D01*
X006024Y018804D01*
X006026Y018804D01*
X006107Y018817D01*
X006185Y018843D01*
X006258Y018880D01*
X006369Y018973D02*
X009015Y018973D01*
X009015Y019071D02*
X006440Y019071D01*
X006482Y019170D02*
X009015Y019170D01*
X009015Y019269D02*
X006503Y019269D01*
X006505Y019367D02*
X009015Y019367D01*
X009015Y019466D02*
X006486Y019466D01*
X006446Y019564D02*
X009015Y019564D01*
X009015Y020057D02*
X002415Y020057D01*
X002415Y020155D02*
X009015Y020155D01*
X009015Y020254D02*
X002415Y020254D01*
X002415Y020353D02*
X009015Y020353D01*
X009015Y020451D02*
X002415Y020451D01*
X002415Y020550D02*
X009015Y020550D01*
X009015Y020648D02*
X002415Y020648D01*
X002415Y020747D02*
X009015Y020747D01*
X009015Y020845D02*
X008694Y020845D01*
X008665Y020831D02*
X008738Y020868D01*
X008804Y020916D01*
X008862Y020974D01*
X008910Y021040D01*
X008947Y021113D01*
X008973Y021191D01*
X008984Y021263D01*
X008516Y021263D01*
X008516Y021363D01*
X008984Y021363D01*
X008973Y021434D01*
X008947Y021512D01*
X008910Y021585D01*
X008862Y021651D01*
X008804Y021709D01*
X008738Y021757D01*
X008665Y021794D01*
X008643Y021802D01*
X008771Y021855D01*
X008923Y022007D01*
X009005Y022205D01*
X009005Y022420D01*
X008923Y022618D01*
X008771Y022770D01*
X008573Y022853D01*
X008358Y022853D01*
X008159Y022770D01*
X008008Y022618D01*
X007925Y022420D01*
X007925Y022205D01*
X008008Y022007D01*
X008159Y021855D01*
X008288Y021802D01*
X008266Y021794D01*
X008193Y021757D01*
X008127Y021709D01*
X008069Y021651D01*
X008021Y021585D01*
X007983Y021512D01*
X007958Y021434D01*
X007947Y021363D01*
X008415Y021363D01*
X008415Y021263D01*
X007947Y021263D01*
X007958Y021191D01*
X007983Y021113D01*
X008021Y021040D01*
X008069Y020974D01*
X008127Y020916D01*
X008193Y020868D01*
X008266Y020831D01*
X008344Y020805D01*
X008415Y020794D01*
X008415Y021262D01*
X008515Y021262D01*
X008515Y020794D01*
X008587Y020805D01*
X008665Y020831D01*
X008832Y020944D02*
X009015Y020944D01*
X009015Y021042D02*
X008911Y021042D01*
X008956Y021141D02*
X009015Y021141D01*
X009015Y021239D02*
X008980Y021239D01*
X009015Y021338D02*
X008516Y021338D01*
X008515Y021239D02*
X008415Y021239D01*
X008415Y021141D02*
X008515Y021141D01*
X008515Y021042D02*
X008415Y021042D01*
X008415Y020944D02*
X008515Y020944D01*
X008515Y020845D02*
X008415Y020845D01*
X008237Y020845D02*
X002415Y020845D01*
X002415Y020944D02*
X008099Y020944D01*
X008019Y021042D02*
X002415Y021042D01*
X002415Y021141D02*
X007974Y021141D01*
X007950Y021239D02*
X002415Y021239D01*
X002415Y021338D02*
X008415Y021338D01*
X008158Y021732D02*
X006255Y021732D01*
X006262Y021747D02*
X006287Y021825D01*
X006299Y021896D01*
X005830Y021896D01*
X005830Y021428D01*
X005902Y021439D01*
X005980Y021465D01*
X006053Y021502D01*
X006119Y021550D01*
X006177Y021608D01*
X006225Y021674D01*
X006262Y021747D01*
X006288Y021831D02*
X008218Y021831D01*
X008085Y021929D02*
X005830Y021929D01*
X005830Y021896D02*
X005830Y021996D01*
X006299Y021996D01*
X006287Y022068D01*
X006262Y022146D01*
X006225Y022219D01*
X006177Y022285D01*
X006119Y022343D01*
X006053Y022391D01*
X005980Y022428D01*
X005902Y022454D01*
X005830Y022465D01*
X005830Y021997D01*
X005730Y021997D01*
X005730Y022465D01*
X005659Y022454D01*
X005581Y022428D01*
X005508Y022391D01*
X005442Y022343D01*
X005384Y022285D01*
X005336Y022219D01*
X005298Y022146D01*
X005291Y022124D01*
X005238Y022252D01*
X005086Y022404D01*
X004888Y022486D01*
X004673Y022486D01*
X004474Y022404D01*
X004323Y022252D01*
X004280Y022150D01*
X004238Y022252D01*
X004086Y022404D01*
X003888Y022486D01*
X003673Y022486D01*
X003474Y022404D01*
X003323Y022252D01*
X003240Y022054D01*
X003240Y021839D01*
X003323Y021641D01*
X003474Y021489D01*
X003673Y021406D01*
X003888Y021406D01*
X004086Y021489D01*
X004238Y021641D01*
X004280Y021743D01*
X004323Y021641D01*
X004474Y021489D01*
X004673Y021406D01*
X004888Y021406D01*
X005086Y021489D01*
X005238Y021641D01*
X005291Y021769D01*
X005298Y021747D01*
X005336Y021674D01*
X005384Y021608D01*
X005442Y021550D01*
X005508Y021502D01*
X005581Y021465D01*
X005659Y021439D01*
X005730Y021428D01*
X005730Y021896D01*
X005830Y021896D01*
X005830Y021831D02*
X005730Y021831D01*
X005730Y021732D02*
X005830Y021732D01*
X005830Y021634D02*
X005730Y021634D01*
X005730Y021535D02*
X005830Y021535D01*
X005830Y021437D02*
X005730Y021437D01*
X005676Y021437D02*
X004960Y021437D01*
X005133Y021535D02*
X005462Y021535D01*
X005365Y021634D02*
X005231Y021634D01*
X005276Y021732D02*
X005306Y021732D01*
X005290Y022126D02*
X005292Y022126D01*
X005249Y022225D02*
X005340Y022225D01*
X005422Y022323D02*
X005167Y022323D01*
X005043Y022422D02*
X005568Y022422D01*
X005730Y022422D02*
X005830Y022422D01*
X005830Y022323D02*
X005730Y022323D01*
X005730Y022225D02*
X005830Y022225D01*
X005830Y022126D02*
X005730Y022126D01*
X005730Y022028D02*
X005830Y022028D01*
X005992Y022422D02*
X007926Y022422D01*
X007925Y022323D02*
X006139Y022323D01*
X006221Y022225D02*
X007925Y022225D01*
X007958Y022126D02*
X006269Y022126D01*
X006294Y022028D02*
X007999Y022028D01*
X008056Y021634D02*
X006196Y021634D01*
X006099Y021535D02*
X007995Y021535D01*
X007959Y021437D02*
X005885Y021437D01*
X005946Y019761D02*
X006024Y019761D01*
X006024Y019663D02*
X005946Y019663D01*
X005946Y019564D02*
X006024Y019564D01*
X006024Y019466D02*
X005946Y019466D01*
X005946Y019367D02*
X006024Y019367D01*
X006024Y019269D02*
X005946Y019269D01*
X005946Y019170D02*
X006024Y019170D01*
X006024Y019071D02*
X005946Y019071D01*
X005946Y018973D02*
X006024Y018973D01*
X006024Y018874D02*
X005946Y018874D01*
X006269Y018480D02*
X006943Y018480D01*
X006976Y018559D02*
X006904Y018386D01*
X006904Y018199D01*
X006976Y018027D01*
X007108Y017894D01*
X007281Y017823D01*
X008067Y017823D01*
X008240Y017894D01*
X008372Y018027D01*
X008444Y018199D01*
X008444Y018386D01*
X008372Y018559D01*
X008240Y018691D01*
X008067Y018763D01*
X007281Y018763D01*
X007108Y018691D01*
X006976Y018559D01*
X006995Y018579D02*
X002415Y018579D01*
X002415Y018677D02*
X007094Y018677D01*
X006904Y018382D02*
X006380Y018382D01*
X006458Y018283D02*
X006904Y018283D01*
X006910Y018185D02*
X006499Y018185D01*
X006525Y018086D02*
X006951Y018086D01*
X007015Y017988D02*
X006525Y017988D01*
X006518Y017889D02*
X007121Y017889D01*
X006525Y016805D02*
X009015Y016805D01*
X009015Y017889D02*
X008227Y017889D01*
X008333Y017988D02*
X009015Y017988D01*
X009015Y018086D02*
X008397Y018086D01*
X008438Y018185D02*
X009015Y018185D01*
X009015Y018283D02*
X008444Y018283D01*
X008444Y018382D02*
X009015Y018382D01*
X009015Y018480D02*
X008405Y018480D01*
X008353Y018579D02*
X009015Y018579D01*
X009015Y018677D02*
X008254Y018677D01*
X008972Y021437D02*
X009015Y021437D01*
X009015Y021535D02*
X008936Y021535D01*
X008875Y021634D02*
X009015Y021634D01*
X009015Y021732D02*
X008773Y021732D01*
X008713Y021831D02*
X009015Y021831D01*
X009015Y021929D02*
X008846Y021929D01*
X008932Y022028D02*
X009015Y022028D01*
X009015Y022126D02*
X008973Y022126D01*
X009005Y022225D02*
X009015Y022225D01*
X009005Y022323D02*
X009015Y022323D01*
X009005Y022422D02*
X009015Y022422D01*
X009015Y022521D02*
X008964Y022521D01*
X008923Y022619D02*
X009015Y022619D01*
X009015Y022718D02*
X008824Y022718D01*
X008661Y022816D02*
X009015Y022816D01*
X008270Y022816D02*
X002415Y022816D01*
X002415Y022718D02*
X008107Y022718D01*
X008008Y022619D02*
X002415Y022619D01*
X002415Y022521D02*
X007967Y022521D01*
X006324Y019721D02*
X006382Y019663D01*
X006324Y019721D02*
X006258Y019769D01*
X004600Y021437D02*
X003960Y021437D01*
X004133Y021535D02*
X004428Y021535D01*
X004329Y021634D02*
X004231Y021634D01*
X004276Y021732D02*
X004285Y021732D01*
X004311Y022225D02*
X004249Y022225D01*
X004167Y022323D02*
X004394Y022323D01*
X004517Y022422D02*
X004043Y022422D01*
X003600Y021437D02*
X002415Y021437D01*
X002415Y021535D02*
X003428Y021535D01*
X003329Y021634D02*
X002415Y021634D01*
X002415Y021732D02*
X003285Y021732D01*
X003244Y021831D02*
X002415Y021831D01*
X002415Y021929D02*
X003240Y021929D01*
X003240Y022028D02*
X002415Y022028D01*
X002415Y022126D02*
X003270Y022126D01*
X003311Y022225D02*
X002415Y022225D01*
X002415Y022323D02*
X003394Y022323D01*
X003517Y022422D02*
X002415Y022422D01*
X002415Y018480D02*
X002701Y018480D01*
X002590Y018382D02*
X002415Y018382D01*
X002415Y018283D02*
X002512Y018283D01*
X002471Y018185D02*
X002415Y018185D01*
X002415Y018086D02*
X002445Y018086D01*
X002445Y017988D02*
X002415Y017988D01*
X002415Y017889D02*
X002452Y017889D01*
X002415Y017790D02*
X002493Y017790D01*
X002543Y017692D02*
X002415Y017692D01*
X002415Y017593D02*
X002641Y017593D01*
X002773Y017199D02*
X002415Y017199D01*
X002415Y017101D02*
X002620Y017101D01*
X002525Y017002D02*
X002415Y017002D01*
X002415Y016904D02*
X002484Y016904D01*
X002445Y016805D02*
X002415Y016805D01*
X002415Y016706D02*
X002445Y016706D01*
X002445Y016608D02*
X002415Y016608D01*
X002415Y016509D02*
X002480Y016509D01*
X002521Y016411D02*
X002415Y016411D01*
X002415Y016312D02*
X002611Y016312D01*
X002754Y016214D02*
X002415Y016214D01*
X002415Y015918D02*
X002846Y015918D01*
X002650Y015820D02*
X002415Y015820D01*
X002415Y015721D02*
X002551Y015721D01*
X002496Y015622D02*
X002415Y015622D01*
X002415Y015524D02*
X002456Y015524D01*
X002445Y015425D02*
X002415Y015425D01*
X002415Y015327D02*
X002445Y015327D01*
X002468Y015228D02*
X002415Y015228D01*
X002415Y015130D02*
X002509Y015130D01*
X002581Y015031D02*
X002415Y015031D01*
X002415Y014933D02*
X002681Y014933D01*
X003289Y014933D02*
X005681Y014933D01*
X005581Y015031D02*
X003389Y015031D01*
X003461Y015130D02*
X005509Y015130D01*
X005468Y015228D02*
X003502Y015228D01*
X003525Y015327D02*
X005445Y015327D01*
X005445Y015425D02*
X003525Y015425D01*
X003515Y015524D02*
X005456Y015524D01*
X005496Y015622D02*
X003474Y015622D01*
X003419Y015721D02*
X005551Y015721D01*
X005650Y015820D02*
X003320Y015820D01*
X002826Y017495D02*
X002415Y017495D01*
X004111Y013257D02*
X007033Y013257D01*
X006955Y013159D02*
X004219Y013159D01*
X004295Y013060D02*
X006912Y013060D01*
X006891Y012962D02*
X004335Y012962D01*
X004361Y012863D02*
X006893Y012863D01*
X006915Y012765D02*
X004361Y012765D01*
X004353Y012666D02*
X006960Y012666D01*
X007043Y012568D02*
X004312Y012568D01*
X004176Y012173D02*
X009015Y012173D01*
X009015Y012075D02*
X004259Y012075D01*
X004308Y011976D02*
X009015Y011976D01*
X009015Y011878D02*
X004334Y011878D01*
X003851Y011681D02*
X003791Y011681D01*
X003791Y011582D02*
X003851Y011582D01*
X003851Y011484D02*
X003791Y011484D01*
X003791Y011385D02*
X003851Y011385D01*
X006360Y007049D02*
X007819Y007049D01*
X007848Y006951D02*
X006530Y006951D01*
X006628Y006852D02*
X007889Y006852D01*
X007969Y006754D02*
X006723Y006754D01*
X006780Y006655D02*
X008089Y006655D01*
X008629Y006655D02*
X009015Y006655D01*
X009015Y006556D02*
X006837Y006556D01*
X006872Y006458D02*
X009015Y006458D01*
X009015Y006359D02*
X006898Y006359D01*
X006922Y006261D02*
X009015Y006261D01*
X009015Y006162D02*
X006922Y006162D01*
X006922Y006064D02*
X009015Y006064D01*
X009015Y005965D02*
X006913Y005965D01*
X006886Y005867D02*
X009015Y005867D01*
X009015Y005768D02*
X006860Y005768D01*
X006811Y005670D02*
X009015Y005670D01*
X009015Y005571D02*
X006754Y005571D01*
X006682Y005473D02*
X009015Y005473D01*
X009015Y005374D02*
X006583Y005374D01*
X006453Y005275D02*
X009015Y005275D01*
X009015Y005177D02*
X006266Y005177D01*
X005590Y004783D02*
X009015Y004783D01*
X009015Y004881D02*
X005525Y004881D01*
X005441Y004980D02*
X009015Y004980D01*
X009015Y005078D02*
X005330Y005078D01*
X005174Y005177D02*
X005539Y005177D01*
X003734Y002615D02*
X002415Y002615D01*
X002415Y002713D02*
X009015Y002713D01*
X009015Y002615D02*
X008757Y002615D01*
X008864Y002516D02*
X009015Y002516D01*
X009015Y002418D02*
X008939Y002418D01*
X008980Y002319D02*
X009015Y002319D01*
X009005Y002221D02*
X009015Y002221D01*
X009005Y002122D02*
X009015Y002122D01*
X009015Y002024D02*
X008997Y002024D01*
X009015Y001925D02*
X008956Y001925D01*
X008904Y001826D02*
X009015Y001826D01*
X009015Y001728D02*
X008806Y001728D01*
X008672Y001629D02*
X009015Y001629D01*
X009015Y001531D02*
X008821Y001531D01*
X008904Y001432D02*
X009015Y001432D01*
X009015Y001334D02*
X008953Y001334D01*
X008979Y001235D02*
X009015Y001235D01*
X009015Y002812D02*
X002415Y002812D01*
X002415Y002910D02*
X009015Y002910D01*
X009015Y003009D02*
X002415Y003009D01*
X002415Y003107D02*
X009015Y003107D01*
X009015Y003206D02*
X002415Y003206D01*
X002415Y002516D02*
X003635Y002516D01*
X003566Y002418D02*
X002415Y002418D01*
X002415Y002319D02*
X003525Y002319D01*
X003504Y002221D02*
X002415Y002221D01*
X002415Y002122D02*
X003504Y002122D01*
X003517Y002024D02*
X002415Y002024D01*
X002415Y001925D02*
X003558Y001925D01*
X003615Y001826D02*
X002415Y001826D01*
X002415Y001728D02*
X003714Y001728D01*
X002415Y001038D02*
X007957Y001038D01*
X007990Y000940D02*
X002415Y000940D01*
X002415Y000841D02*
X008048Y000841D01*
X008143Y000742D02*
X002415Y000742D01*
X006750Y010695D02*
X006787Y010695D01*
X006787Y010794D02*
X006750Y010794D01*
X006750Y010892D02*
X006787Y010892D01*
X006787Y010991D02*
X006750Y010991D01*
X006750Y011188D02*
X006787Y011188D01*
X006787Y011287D02*
X006750Y011287D01*
X006750Y011385D02*
X006787Y011385D01*
X006787Y011484D02*
X006750Y011484D01*
X007522Y012469D02*
X007923Y012469D01*
X007970Y012422D02*
X007870Y012522D01*
X007870Y013313D01*
X007970Y013412D01*
X008760Y013412D01*
X008860Y013313D01*
X008860Y012522D01*
X008760Y012422D01*
X007970Y012422D01*
X007870Y012568D02*
X007687Y012568D01*
X007770Y012666D02*
X007870Y012666D01*
X007870Y012765D02*
X007815Y012765D01*
X007837Y012863D02*
X007870Y012863D01*
X007870Y012962D02*
X007839Y012962D01*
X007818Y013060D02*
X007870Y013060D01*
X007870Y013159D02*
X007775Y013159D01*
X007697Y013257D02*
X007870Y013257D01*
X007913Y013356D02*
X007550Y013356D01*
X008817Y013356D02*
X009015Y013356D01*
X009015Y013257D02*
X008860Y013257D01*
X008860Y013159D02*
X009015Y013159D01*
X009015Y013060D02*
X008860Y013060D01*
X008860Y012962D02*
X009015Y012962D01*
X009015Y012863D02*
X008860Y012863D01*
X008860Y012765D02*
X009015Y012765D01*
X009015Y012666D02*
X008860Y012666D01*
X008860Y012568D02*
X009015Y012568D01*
X009015Y012469D02*
X008807Y012469D01*
X008708Y007542D02*
X009015Y007542D01*
X009015Y007443D02*
X008807Y007443D01*
X008854Y007345D02*
X009015Y007345D01*
X009015Y007246D02*
X008894Y007246D01*
X008899Y007148D02*
X009015Y007148D01*
X009015Y007049D02*
X008899Y007049D01*
X008870Y006951D02*
X009015Y006951D01*
X009015Y006852D02*
X008829Y006852D01*
X008749Y006754D02*
X009015Y006754D01*
M02*
