G75*
G70*
%OFA0B0*%
%FSLAX24Y24*%
%IPPOS*%
%LPD*%
%AMOC8*
5,1,8,0,0,1.08239X$1,22.5*
%
%ADD10C,0.0515*%
%ADD11C,0.0740*%
%ADD12C,0.0780*%
%ADD13C,0.0650*%
%ADD14R,0.0650X0.0650*%
%ADD15C,0.0600*%
%ADD16C,0.1700*%
%ADD17C,0.0100*%
D10*
X007956Y006613D03*
X007956Y008613D03*
D11*
X008006Y013613D03*
X008006Y014613D03*
X008506Y016113D03*
X007456Y016113D03*
X006506Y016113D03*
X005506Y016113D03*
X005506Y019113D03*
X006506Y019113D03*
X007456Y019113D03*
X008506Y019113D03*
X008506Y020363D03*
X008506Y021363D03*
X006006Y021613D03*
X005006Y021613D03*
X004006Y021613D03*
X008506Y003613D03*
X008506Y002613D03*
X006006Y002613D03*
X005006Y002613D03*
X004006Y002613D03*
D12*
X003006Y004613D03*
X007006Y004613D03*
D13*
X007006Y012113D03*
X006006Y012113D03*
X006006Y014113D03*
X003006Y012113D03*
D14*
X004006Y012113D03*
X005006Y014113D03*
D15*
X004296Y016603D02*
X003696Y016603D01*
X003696Y017603D02*
X004296Y017603D01*
X004296Y018603D02*
X003696Y018603D01*
D16*
X003537Y008613D03*
X004718Y006762D03*
X005899Y008613D03*
D17*
X003056Y004553D02*
X003056Y003573D01*
X003966Y002663D01*
X004006Y002613D01*
X005006Y002613D02*
X005016Y002663D01*
X005856Y003503D01*
X005856Y008613D01*
X005899Y008613D01*
X007956Y006583D02*
X007046Y005673D01*
X007046Y004623D01*
X007006Y004613D01*
X007956Y006583D02*
X007956Y006613D01*
X007956Y008613D02*
X004456Y012113D01*
X004006Y012113D01*
X003966Y012113D01*
X003966Y016593D01*
X003996Y016603D01*
X004946Y016663D02*
X004036Y017573D01*
X003996Y017603D01*
X004036Y018553D02*
X003996Y018603D01*
X004036Y018553D02*
X005506Y017083D01*
X005506Y016113D01*
X005506Y016103D01*
X006486Y016103D01*
X006506Y016113D01*
X007116Y018553D02*
X007956Y018553D01*
X007956Y015613D01*
X004946Y015613D01*
X004946Y016663D01*
X004946Y015613D02*
X004946Y014143D01*
X005006Y014113D01*
X005016Y014073D01*
X006976Y012113D01*
X007006Y012113D01*
X007046Y012113D01*
X008376Y010783D01*
X008376Y003713D01*
X008446Y003643D01*
X008506Y003613D01*
X008006Y014613D02*
X008446Y015053D01*
X008446Y016103D01*
X008506Y016113D01*
X008446Y018553D02*
X007956Y018553D01*
X007956Y020863D01*
X008446Y021353D01*
X008506Y021363D01*
X008446Y019113D02*
X008506Y019113D01*
X008446Y019113D02*
X008446Y018553D01*
X007456Y019113D02*
X007396Y019113D01*
X006836Y019673D01*
X005016Y019673D01*
X005016Y019603D01*
X005506Y019113D01*
X005016Y019673D02*
X005016Y021563D01*
X005006Y021613D01*
X006506Y019113D02*
X006556Y019113D01*
X007116Y018553D01*
X003006Y004613D02*
X003056Y004553D01*
M02*
