G75*
G70*
%OFA0B0*%
%FSLAX24Y24*%
%IPPOS*%
%LPD*%
%AMOC8*
5,1,8,0,0,1.08239X$1,22.5*
%
%ADD10C,0.0080*%
%ADD11C,0.0100*%
%ADD12R,0.0500X0.0750*%
%ADD13R,0.0300X0.0700*%
%ADD14R,0.0500X0.0300*%
%ADD15C,0.0070*%
%ADD16C,0.0030*%
%ADD17C,0.0040*%
%ADD18C,0.0050*%
D10*
X002716Y002056D02*
X007295Y002056D01*
X007295Y003469D01*
X002716Y003469D01*
X002716Y002056D01*
X003756Y004113D02*
X003756Y004613D01*
X003506Y004613D01*
X003756Y004613D02*
X003756Y005113D01*
X005756Y005113D01*
X005756Y004113D01*
X006256Y004113D01*
X006256Y004613D01*
X006506Y004613D01*
X006256Y004613D02*
X006256Y005113D01*
X005756Y005113D01*
X005756Y004113D02*
X003756Y004113D01*
X003773Y006841D02*
X002487Y006841D01*
X002487Y010384D01*
X005899Y010384D01*
X005899Y009557D01*
X005899Y007668D02*
X005899Y006841D01*
X005624Y006841D01*
X007356Y006113D02*
X008556Y006113D01*
X008556Y009113D01*
X007356Y009113D01*
X007356Y006113D01*
X008256Y004113D02*
X008006Y003863D01*
X008006Y003363D01*
X008256Y003113D01*
X008006Y002863D01*
X008006Y002363D01*
X008256Y002113D01*
X008756Y002113D01*
X009006Y002363D01*
X009006Y002863D01*
X008756Y003113D01*
X009006Y003363D01*
X009006Y003863D01*
X008756Y004113D01*
X008256Y004113D01*
X006506Y011863D02*
X006506Y012363D01*
X006210Y013600D02*
X005810Y013600D01*
X004522Y014113D02*
X004524Y014175D01*
X004530Y014238D01*
X004540Y014299D01*
X004554Y014360D01*
X004571Y014420D01*
X004592Y014479D01*
X004618Y014536D01*
X004646Y014591D01*
X004678Y014645D01*
X004714Y014696D01*
X004752Y014746D01*
X004794Y014792D01*
X004838Y014836D01*
X004886Y014877D01*
X004935Y014915D01*
X004987Y014949D01*
X005041Y014980D01*
X005097Y015008D01*
X005155Y015032D01*
X005214Y015053D01*
X005274Y015069D01*
X005335Y015082D01*
X005397Y015091D01*
X005459Y015096D01*
X005522Y015097D01*
X005584Y015094D01*
X005646Y015087D01*
X005708Y015076D01*
X005768Y015061D01*
X005828Y015043D01*
X005886Y015021D01*
X005943Y014995D01*
X005998Y014965D01*
X006051Y014932D01*
X006102Y014896D01*
X006150Y014857D01*
X006196Y014814D01*
X006239Y014769D01*
X006279Y014721D01*
X006316Y014671D01*
X006350Y014618D01*
X006381Y014564D01*
X006407Y014508D01*
X006431Y014450D01*
X006450Y014390D01*
X006466Y014330D01*
X006478Y014268D01*
X006486Y014207D01*
X006490Y014144D01*
X006490Y014082D01*
X006486Y014019D01*
X006478Y013958D01*
X006466Y013896D01*
X006450Y013836D01*
X006431Y013776D01*
X006407Y013718D01*
X006381Y013662D01*
X006350Y013608D01*
X006316Y013555D01*
X006279Y013505D01*
X006239Y013457D01*
X006196Y013412D01*
X006150Y013369D01*
X006102Y013330D01*
X006051Y013294D01*
X005998Y013261D01*
X005943Y013231D01*
X005886Y013205D01*
X005828Y013183D01*
X005768Y013165D01*
X005708Y013150D01*
X005646Y013139D01*
X005584Y013132D01*
X005522Y013129D01*
X005459Y013130D01*
X005397Y013135D01*
X005335Y013144D01*
X005274Y013157D01*
X005214Y013173D01*
X005155Y013194D01*
X005097Y013218D01*
X005041Y013246D01*
X004987Y013277D01*
X004935Y013311D01*
X004886Y013349D01*
X004838Y013390D01*
X004794Y013434D01*
X004752Y013480D01*
X004714Y013530D01*
X004678Y013581D01*
X004646Y013635D01*
X004618Y013690D01*
X004592Y013747D01*
X004571Y013806D01*
X004554Y013866D01*
X004540Y013927D01*
X004530Y013988D01*
X004524Y014051D01*
X004522Y014113D01*
X004546Y015603D02*
X003396Y015603D01*
X003296Y015703D01*
X003296Y019503D01*
X003396Y019603D01*
X004546Y019603D01*
X005206Y018613D02*
X005506Y018613D01*
X005506Y018713D01*
X005506Y018613D02*
X005806Y018613D01*
X005806Y016613D01*
X005506Y016613D01*
X005506Y016513D01*
X005506Y016613D02*
X005206Y016613D01*
X005206Y018613D01*
X005456Y018038D02*
X005616Y017878D01*
X005656Y017918D01*
X005656Y017998D01*
X005616Y018038D01*
X005456Y018038D01*
X005415Y017998D01*
X005415Y017918D01*
X005456Y017878D01*
X005616Y017878D01*
X005616Y017743D02*
X005456Y017743D01*
X005415Y017703D01*
X005415Y017623D01*
X005456Y017583D01*
X005496Y017583D01*
X005536Y017623D01*
X005536Y017743D01*
X005616Y017743D02*
X005656Y017703D01*
X005656Y017623D01*
X005616Y017583D01*
X005616Y017449D02*
X005576Y017449D01*
X005536Y017409D01*
X005536Y017369D01*
X005536Y017409D02*
X005496Y017449D01*
X005456Y017449D01*
X005415Y017409D01*
X005415Y017329D01*
X005456Y017289D01*
X005616Y017289D02*
X005656Y017329D01*
X005656Y017409D01*
X005616Y017449D01*
X006206Y016613D02*
X006206Y018613D01*
X006506Y018613D01*
X006506Y018713D01*
X006506Y018613D02*
X006806Y018613D01*
X006806Y016613D01*
X006506Y016613D01*
X006506Y016513D01*
X006506Y016613D02*
X006206Y016613D01*
X006436Y017319D02*
X006395Y017359D01*
X006395Y017439D01*
X006436Y017479D01*
X006476Y017479D01*
X006636Y017319D01*
X006636Y017479D01*
X006516Y017613D02*
X006516Y017773D01*
X006636Y017733D02*
X006395Y017733D01*
X006516Y017613D01*
X006596Y017908D02*
X006436Y017908D01*
X006395Y017948D01*
X006395Y018028D01*
X006436Y018068D01*
X006596Y017908D01*
X006636Y017948D01*
X006636Y018028D01*
X006596Y018068D01*
X006436Y018068D01*
X007156Y018613D02*
X007156Y016613D01*
X007456Y016613D01*
X007456Y016513D01*
X007456Y016613D02*
X007756Y016613D01*
X007756Y018613D01*
X007456Y018613D01*
X007456Y018713D01*
X007456Y018613D02*
X007156Y018613D01*
X007366Y018052D02*
X007526Y017892D01*
X007566Y017932D01*
X007566Y018012D01*
X007526Y018052D01*
X007366Y018052D01*
X007325Y018012D01*
X007325Y017932D01*
X007366Y017892D01*
X007526Y017892D01*
X007526Y017757D02*
X007566Y017717D01*
X007566Y017637D01*
X007526Y017597D01*
X007446Y017677D02*
X007446Y017717D01*
X007486Y017757D01*
X007526Y017757D01*
X007446Y017717D02*
X007406Y017757D01*
X007366Y017757D01*
X007325Y017717D01*
X007325Y017637D01*
X007366Y017597D01*
X007366Y017463D02*
X007406Y017463D01*
X007446Y017423D01*
X007486Y017463D01*
X007526Y017463D01*
X007566Y017423D01*
X007566Y017343D01*
X007526Y017303D01*
X007446Y017383D02*
X007446Y017423D01*
X007366Y017463D02*
X007325Y017423D01*
X007325Y017343D01*
X007366Y017303D01*
X008206Y016613D02*
X008506Y016613D01*
X008506Y016513D01*
X008506Y016613D02*
X008806Y016613D01*
X008806Y018613D01*
X008506Y018613D01*
X008506Y018713D01*
X008506Y018613D02*
X008206Y018613D01*
X008206Y016613D01*
X008416Y017253D02*
X008375Y017293D01*
X008375Y017373D01*
X008416Y017413D01*
X008456Y017413D01*
X008496Y017373D01*
X008536Y017413D01*
X008576Y017413D01*
X008616Y017373D01*
X008616Y017293D01*
X008576Y017253D01*
X008496Y017333D02*
X008496Y017373D01*
X008576Y017547D02*
X008616Y017587D01*
X008616Y017667D01*
X008576Y017707D01*
X008536Y017707D01*
X008496Y017667D01*
X008496Y017627D01*
X008496Y017667D02*
X008456Y017707D01*
X008416Y017707D01*
X008375Y017667D01*
X008375Y017587D01*
X008416Y017547D01*
X008416Y017842D02*
X008375Y017882D01*
X008375Y017962D01*
X008416Y018002D01*
X008576Y017842D01*
X008616Y017882D01*
X008616Y017962D01*
X008576Y018002D01*
X008416Y018002D01*
X008416Y017842D02*
X008576Y017842D01*
X008756Y019863D02*
X008256Y019863D01*
X008006Y020113D01*
X008006Y020613D01*
X008256Y020863D01*
X008006Y021113D01*
X008006Y021613D01*
X008256Y021863D01*
X008756Y021863D01*
X009006Y021613D01*
X009006Y021113D01*
X008756Y020863D01*
X009006Y020613D01*
X009006Y020113D01*
X008756Y019863D01*
X007295Y020756D02*
X007295Y022119D01*
X002716Y022119D01*
X002716Y020756D01*
X007295Y020756D01*
X007006Y014113D02*
X007008Y014176D01*
X007014Y014238D01*
X007024Y014300D01*
X007037Y014362D01*
X007055Y014422D01*
X007076Y014481D01*
X007101Y014539D01*
X007130Y014595D01*
X007162Y014649D01*
X007197Y014701D01*
X007235Y014750D01*
X007277Y014798D01*
X007321Y014842D01*
X007369Y014884D01*
X007418Y014922D01*
X007470Y014957D01*
X007524Y014989D01*
X007580Y015018D01*
X007638Y015043D01*
X007697Y015064D01*
X007757Y015082D01*
X007819Y015095D01*
X007881Y015105D01*
X007943Y015111D01*
X008006Y015113D01*
X008069Y015111D01*
X008131Y015105D01*
X008193Y015095D01*
X008255Y015082D01*
X008315Y015064D01*
X008374Y015043D01*
X008432Y015018D01*
X008488Y014989D01*
X008542Y014957D01*
X008594Y014922D01*
X008643Y014884D01*
X008691Y014842D01*
X008735Y014798D01*
X008777Y014750D01*
X008815Y014701D01*
X008850Y014649D01*
X008882Y014595D01*
X008911Y014539D01*
X008936Y014481D01*
X008957Y014422D01*
X008975Y014362D01*
X008988Y014300D01*
X008998Y014238D01*
X009004Y014176D01*
X009006Y014113D01*
X009004Y014050D01*
X008998Y013988D01*
X008988Y013926D01*
X008975Y013864D01*
X008957Y013804D01*
X008936Y013745D01*
X008911Y013687D01*
X008882Y013631D01*
X008850Y013577D01*
X008815Y013525D01*
X008777Y013476D01*
X008735Y013428D01*
X008691Y013384D01*
X008643Y013342D01*
X008594Y013304D01*
X008542Y013269D01*
X008488Y013237D01*
X008432Y013208D01*
X008374Y013183D01*
X008315Y013162D01*
X008255Y013144D01*
X008193Y013131D01*
X008131Y013121D01*
X008069Y013115D01*
X008006Y013113D01*
X007943Y013115D01*
X007881Y013121D01*
X007819Y013131D01*
X007757Y013144D01*
X007697Y013162D01*
X007638Y013183D01*
X007580Y013208D01*
X007524Y013237D01*
X007470Y013269D01*
X007418Y013304D01*
X007369Y013342D01*
X007321Y013384D01*
X007277Y013428D01*
X007235Y013476D01*
X007197Y013525D01*
X007162Y013577D01*
X007130Y013631D01*
X007101Y013687D01*
X007076Y013745D01*
X007055Y013804D01*
X007037Y013864D01*
X007024Y013926D01*
X007014Y013988D01*
X007008Y014050D01*
X007006Y014113D01*
X007256Y013113D02*
X008756Y013113D01*
X002226Y012113D02*
X002228Y012184D01*
X002234Y012255D01*
X002244Y012326D01*
X002258Y012395D01*
X002275Y012464D01*
X002297Y012532D01*
X002322Y012599D01*
X002351Y012664D01*
X002383Y012727D01*
X002419Y012789D01*
X002458Y012848D01*
X002501Y012905D01*
X002546Y012960D01*
X002595Y013012D01*
X002646Y013061D01*
X002700Y013107D01*
X002757Y013151D01*
X002815Y013191D01*
X002876Y013227D01*
X002939Y013261D01*
X003004Y013290D01*
X003070Y013316D01*
X003138Y013339D01*
X003206Y013357D01*
X003276Y013372D01*
X003346Y013383D01*
X003417Y013390D01*
X003488Y013393D01*
X003559Y013392D01*
X003630Y013387D01*
X003701Y013378D01*
X003771Y013365D01*
X003840Y013349D01*
X003908Y013328D01*
X003975Y013304D01*
X004041Y013276D01*
X004104Y013244D01*
X004166Y013209D01*
X004226Y013171D01*
X004284Y013129D01*
X004339Y013085D01*
X004392Y013037D01*
X004442Y012986D01*
X004489Y012933D01*
X004533Y012877D01*
X004574Y012819D01*
X004612Y012758D01*
X004646Y012696D01*
X004676Y012631D01*
X004703Y012566D01*
X004727Y012498D01*
X004746Y012430D01*
X004762Y012361D01*
X004774Y012290D01*
X004782Y012220D01*
X004786Y012149D01*
X004786Y012077D01*
X004782Y012006D01*
X004774Y011936D01*
X004762Y011865D01*
X004746Y011796D01*
X004727Y011728D01*
X004703Y011660D01*
X004676Y011595D01*
X004646Y011530D01*
X004612Y011468D01*
X004574Y011407D01*
X004533Y011349D01*
X004489Y011293D01*
X004442Y011240D01*
X004392Y011189D01*
X004339Y011141D01*
X004284Y011097D01*
X004226Y011055D01*
X004166Y011017D01*
X004104Y010982D01*
X004041Y010950D01*
X003975Y010922D01*
X003908Y010898D01*
X003840Y010877D01*
X003771Y010861D01*
X003701Y010848D01*
X003630Y010839D01*
X003559Y010834D01*
X003488Y010833D01*
X003417Y010836D01*
X003346Y010843D01*
X003276Y010854D01*
X003206Y010869D01*
X003138Y010887D01*
X003070Y010910D01*
X003004Y010936D01*
X002939Y010965D01*
X002876Y010999D01*
X002815Y011035D01*
X002757Y011075D01*
X002700Y011119D01*
X002646Y011165D01*
X002595Y011214D01*
X002546Y011266D01*
X002501Y011321D01*
X002458Y011378D01*
X002419Y011437D01*
X002383Y011499D01*
X002351Y011562D01*
X002322Y011627D01*
X002297Y011694D01*
X002275Y011762D01*
X002258Y011831D01*
X002244Y011900D01*
X002234Y011971D01*
X002228Y012042D01*
X002226Y012113D01*
X002756Y012613D02*
X003256Y012613D01*
X003436Y019423D02*
X003438Y019443D01*
X003444Y019461D01*
X003453Y019479D01*
X003465Y019494D01*
X003480Y019506D01*
X003498Y019515D01*
X003516Y019521D01*
X003536Y019523D01*
X003556Y019521D01*
X003574Y019515D01*
X003592Y019506D01*
X003607Y019494D01*
X003619Y019479D01*
X003628Y019461D01*
X003634Y019443D01*
X003636Y019423D01*
X003634Y019403D01*
X003628Y019385D01*
X003619Y019367D01*
X003607Y019352D01*
X003592Y019340D01*
X003574Y019331D01*
X003556Y019325D01*
X003536Y019323D01*
X003516Y019325D01*
X003498Y019331D01*
X003480Y019340D01*
X003465Y019352D01*
X003453Y019367D01*
X003444Y019385D01*
X003438Y019403D01*
X003436Y019423D01*
D11*
X007256Y013113D02*
X007202Y013156D01*
X007150Y013202D01*
X007101Y013251D01*
X007054Y013303D01*
X007011Y013357D01*
X006970Y013413D01*
X006933Y013472D01*
X006899Y013532D01*
X006869Y013595D01*
X006842Y013658D01*
X006818Y013724D01*
X006798Y013790D01*
X006782Y013858D01*
X006770Y013926D01*
X006762Y013995D01*
X006757Y014064D01*
X006756Y014134D01*
X006759Y014203D01*
X006766Y014272D01*
X006777Y014340D01*
X006791Y014408D01*
X006810Y014475D01*
X006832Y014541D01*
X006857Y014606D01*
X006886Y014669D01*
X006919Y014730D01*
X006955Y014789D01*
X006994Y014846D01*
X007036Y014902D01*
X007081Y014954D01*
X007129Y015004D01*
X007180Y015051D01*
X007234Y015096D01*
X007289Y015137D01*
X007347Y015175D01*
X007407Y015210D01*
X007469Y015242D01*
X007532Y015270D01*
X007597Y015294D01*
X007663Y015315D01*
X007731Y015332D01*
X007799Y015346D01*
X007868Y015355D01*
X007937Y015361D01*
X008006Y015363D01*
X008075Y015361D01*
X008144Y015355D01*
X008213Y015346D01*
X008281Y015332D01*
X008349Y015315D01*
X008415Y015294D01*
X008480Y015270D01*
X008543Y015242D01*
X008605Y015210D01*
X008665Y015175D01*
X008723Y015137D01*
X008778Y015096D01*
X008832Y015051D01*
X008883Y015004D01*
X008931Y014954D01*
X008976Y014902D01*
X009018Y014846D01*
X009057Y014789D01*
X009093Y014730D01*
X009126Y014669D01*
X009155Y014606D01*
X009180Y014541D01*
X009202Y014475D01*
X009221Y014408D01*
X009235Y014340D01*
X009246Y014272D01*
X009253Y014203D01*
X009256Y014134D01*
X009255Y014064D01*
X009250Y013995D01*
X009242Y013926D01*
X009230Y013858D01*
X009214Y013790D01*
X009194Y013724D01*
X009170Y013658D01*
X009143Y013595D01*
X009113Y013532D01*
X009079Y013472D01*
X009042Y013413D01*
X009001Y013357D01*
X008958Y013303D01*
X008911Y013251D01*
X008862Y013202D01*
X008810Y013156D01*
X008756Y013113D01*
D12*
X004746Y015878D03*
X004746Y019278D03*
D13*
X004846Y018603D03*
X004846Y017603D03*
X004846Y016603D03*
D14*
X004746Y017103D03*
X004746Y018103D03*
D15*
X007501Y020373D02*
X007828Y020373D01*
X007664Y021189D02*
X007664Y021516D01*
X007501Y021353D02*
X007828Y021353D01*
X007654Y003756D02*
X007654Y003429D01*
X007491Y003593D02*
X007818Y003593D01*
X007818Y002593D02*
X007491Y002593D01*
D16*
X007568Y005358D02*
X007603Y005358D01*
X007638Y005393D01*
X007638Y005568D01*
X007498Y005568D02*
X007498Y005463D01*
X007533Y005428D01*
X007638Y005428D01*
X007421Y005428D02*
X007351Y005428D01*
X007386Y005428D02*
X007386Y005638D01*
X007351Y005638D01*
X007270Y005533D02*
X007270Y005463D01*
X007235Y005428D01*
X007130Y005428D01*
X007130Y005358D02*
X007130Y005568D01*
X007235Y005568D01*
X007270Y005533D01*
X007049Y005533D02*
X007049Y005463D01*
X007014Y005428D01*
X006909Y005428D01*
X006909Y005358D02*
X006909Y005568D01*
X007014Y005568D01*
X007049Y005533D01*
X006828Y005568D02*
X006828Y005428D01*
X006723Y005428D01*
X006688Y005463D01*
X006688Y005568D01*
X006607Y005603D02*
X006572Y005638D01*
X006502Y005638D01*
X006467Y005603D01*
X006467Y005568D01*
X006502Y005533D01*
X006572Y005533D01*
X006607Y005498D01*
X006607Y005463D01*
X006572Y005428D01*
X006502Y005428D01*
X006467Y005463D01*
X006167Y005568D02*
X006132Y005568D01*
X006062Y005498D01*
X006062Y005428D02*
X006062Y005568D01*
X005981Y005533D02*
X005981Y005498D01*
X005841Y005498D01*
X005841Y005533D02*
X005876Y005568D01*
X005946Y005568D01*
X005981Y005533D01*
X005946Y005428D02*
X005876Y005428D01*
X005841Y005463D01*
X005841Y005533D01*
X005760Y005568D02*
X005760Y005463D01*
X005725Y005428D01*
X005690Y005463D01*
X005655Y005428D01*
X005620Y005463D01*
X005620Y005568D01*
X005539Y005533D02*
X005504Y005568D01*
X005434Y005568D01*
X005399Y005533D01*
X005399Y005463D01*
X005434Y005428D01*
X005504Y005428D01*
X005539Y005463D01*
X005539Y005533D01*
X005318Y005533D02*
X005283Y005498D01*
X005178Y005498D01*
X005178Y005428D02*
X005178Y005638D01*
X005283Y005638D01*
X005318Y005603D01*
X005318Y005533D01*
X004876Y005568D02*
X004771Y005568D01*
X004736Y005533D01*
X004736Y005463D01*
X004771Y005428D01*
X004876Y005428D01*
X004876Y005638D01*
X004657Y005568D02*
X004622Y005568D01*
X004552Y005498D01*
X004552Y005428D02*
X004552Y005568D01*
X004471Y005533D02*
X004471Y005428D01*
X004366Y005428D01*
X004331Y005463D01*
X004366Y005498D01*
X004471Y005498D01*
X004471Y005533D02*
X004436Y005568D01*
X004366Y005568D01*
X004250Y005533D02*
X004215Y005568D01*
X004145Y005568D01*
X004110Y005533D01*
X004110Y005463D01*
X004145Y005428D01*
X004215Y005428D01*
X004250Y005463D01*
X004250Y005533D01*
X004029Y005568D02*
X003994Y005533D01*
X003889Y005533D01*
X003808Y005568D02*
X003703Y005568D01*
X003668Y005533D01*
X003668Y005463D01*
X003703Y005428D01*
X003808Y005428D01*
X003808Y005638D01*
X003889Y005638D02*
X003994Y005638D01*
X004029Y005603D01*
X004029Y005568D01*
X003994Y005533D02*
X004029Y005498D01*
X004029Y005463D01*
X003994Y005428D01*
X003889Y005428D01*
X003889Y005638D01*
X003587Y005533D02*
X003587Y005428D01*
X003482Y005428D01*
X003447Y005463D01*
X003482Y005498D01*
X003587Y005498D01*
X003587Y005533D02*
X003552Y005568D01*
X003482Y005568D01*
X003366Y005533D02*
X003366Y005498D01*
X003226Y005498D01*
X003226Y005533D02*
X003261Y005568D01*
X003331Y005568D01*
X003366Y005533D01*
X003331Y005428D02*
X003261Y005428D01*
X003226Y005463D01*
X003226Y005533D01*
X003147Y005568D02*
X003112Y005568D01*
X003042Y005498D01*
X003042Y005428D02*
X003042Y005568D01*
X002961Y005568D02*
X002961Y005603D01*
X002926Y005638D01*
X002821Y005638D01*
X002821Y005428D01*
X002926Y005428D01*
X002961Y005463D01*
X002961Y005498D01*
X002926Y005533D01*
X002821Y005533D01*
X002926Y005533D02*
X002961Y005568D01*
X003071Y010528D02*
X003211Y010528D01*
X003141Y010528D02*
X003141Y010738D01*
X003071Y010668D01*
X003292Y010703D02*
X003292Y010563D01*
X003432Y010703D01*
X003432Y010563D01*
X003397Y010528D01*
X003327Y010528D01*
X003292Y010563D01*
X003292Y010703D02*
X003327Y010738D01*
X003397Y010738D01*
X003432Y010703D01*
X003513Y010703D02*
X003513Y010563D01*
X003653Y010703D01*
X003653Y010563D01*
X003618Y010528D01*
X003548Y010528D01*
X003513Y010563D01*
X003513Y010703D02*
X003548Y010738D01*
X003618Y010738D01*
X003653Y010703D01*
X003734Y010668D02*
X003734Y010563D01*
X003769Y010528D01*
X003874Y010528D01*
X003874Y010668D01*
X003955Y010633D02*
X004025Y010633D01*
X003955Y010738D02*
X004095Y010738D01*
X003955Y010738D02*
X003955Y010528D01*
X005171Y015228D02*
X005311Y015228D01*
X005241Y015228D02*
X005241Y015438D01*
X005171Y015368D01*
X005392Y015403D02*
X005392Y015263D01*
X005532Y015403D01*
X005532Y015263D01*
X005497Y015228D01*
X005427Y015228D01*
X005392Y015263D01*
X005392Y015403D02*
X005427Y015438D01*
X005497Y015438D01*
X005532Y015403D01*
X005613Y015368D02*
X005613Y015263D01*
X005648Y015228D01*
X005753Y015228D01*
X005753Y015368D01*
X005834Y015333D02*
X005904Y015333D01*
X005834Y015438D02*
X005974Y015438D01*
X005834Y015438D02*
X005834Y015228D01*
X006156Y011538D02*
X006226Y011538D01*
X006261Y011503D01*
X006121Y011363D01*
X006156Y011328D01*
X006226Y011328D01*
X006261Y011363D01*
X006261Y011503D01*
X006156Y011538D02*
X006121Y011503D01*
X006121Y011363D01*
X006342Y011363D02*
X006377Y011363D01*
X006377Y011328D01*
X006342Y011328D01*
X006342Y011363D01*
X006452Y011328D02*
X006592Y011328D01*
X006522Y011328D02*
X006522Y011538D01*
X006452Y011468D01*
X006673Y011468D02*
X006673Y011363D01*
X006708Y011328D01*
X006813Y011328D01*
X006813Y011468D01*
X006894Y011433D02*
X006964Y011433D01*
X006894Y011328D02*
X006894Y011538D01*
X007034Y011538D01*
X008231Y005638D02*
X008231Y005428D01*
X008161Y005428D02*
X008301Y005428D01*
X008382Y005428D02*
X008417Y005428D01*
X008417Y005463D01*
X008382Y005463D01*
X008382Y005428D01*
X008493Y005463D02*
X008493Y005603D01*
X008528Y005638D01*
X008598Y005638D01*
X008633Y005603D01*
X008493Y005463D01*
X008528Y005428D01*
X008598Y005428D01*
X008633Y005463D01*
X008633Y005603D01*
X008231Y005638D02*
X008161Y005568D01*
X008080Y005568D02*
X008010Y005428D01*
X007940Y005568D01*
X003008Y016528D02*
X003008Y016633D01*
X002973Y016668D01*
X002868Y016668D01*
X002868Y016528D01*
X002791Y016528D02*
X002721Y016528D01*
X002756Y016528D02*
X002756Y016738D01*
X002721Y016738D02*
X002791Y016738D01*
X002726Y017478D02*
X002656Y017478D01*
X002621Y017513D01*
X002621Y017653D01*
X002656Y017688D01*
X002726Y017688D01*
X002761Y017653D01*
X002761Y017513D01*
X002726Y017478D01*
X002842Y017513D02*
X002877Y017478D01*
X002982Y017478D01*
X002982Y017618D01*
X003063Y017618D02*
X003133Y017618D01*
X003098Y017653D02*
X003098Y017513D01*
X003133Y017478D01*
X002842Y017513D02*
X002842Y017618D01*
X003063Y018458D02*
X003098Y018458D01*
X003133Y018493D01*
X003133Y018668D01*
X003133Y018738D02*
X003133Y018773D01*
X002982Y018738D02*
X002982Y018528D01*
X002877Y018528D01*
X002842Y018563D01*
X002842Y018633D01*
X002877Y018668D01*
X002982Y018668D01*
X002761Y018668D02*
X002761Y018528D01*
X002761Y018633D02*
X002621Y018633D01*
X002621Y018668D02*
X002691Y018738D01*
X002761Y018668D01*
X002621Y018668D02*
X002621Y018528D01*
D17*
X007376Y012913D02*
X007376Y012633D01*
X007376Y012726D02*
X007516Y012726D01*
X007562Y012773D01*
X007562Y012866D01*
X007516Y012913D01*
X007376Y012913D01*
X007670Y012773D02*
X007670Y012679D01*
X007717Y012633D01*
X007810Y012633D01*
X007857Y012679D01*
X007857Y012773D01*
X007810Y012819D01*
X007717Y012819D01*
X007670Y012773D01*
X007772Y012363D02*
X007726Y012316D01*
X007726Y012129D01*
X007772Y012083D01*
X007866Y012083D01*
X007912Y012129D01*
X007912Y012316D01*
X007866Y012363D01*
X007772Y012363D01*
X008012Y012633D02*
X007965Y012679D01*
X007965Y012819D01*
X008058Y012679D02*
X008012Y012633D01*
X008058Y012679D02*
X008105Y012633D01*
X008152Y012679D01*
X008152Y012819D01*
X008260Y012773D02*
X008306Y012819D01*
X008400Y012819D01*
X008446Y012773D01*
X008446Y012726D01*
X008260Y012726D01*
X008260Y012679D02*
X008260Y012773D01*
X008260Y012679D02*
X008306Y012633D01*
X008400Y012633D01*
X008554Y012633D02*
X008554Y012819D01*
X008554Y012726D02*
X008648Y012819D01*
X008694Y012819D01*
X008160Y012269D02*
X008207Y012223D01*
X008207Y012083D01*
X008160Y012269D02*
X008020Y012269D01*
X008020Y012083D01*
X008057Y007713D02*
X007870Y007713D01*
X007964Y007713D02*
X007964Y007433D01*
X008165Y007479D02*
X008212Y007433D01*
X008305Y007433D01*
X008352Y007479D01*
X008352Y007666D02*
X008305Y007713D01*
X008212Y007713D01*
X008165Y007666D01*
X008165Y007479D01*
X007762Y007573D02*
X007716Y007526D01*
X007576Y007526D01*
X007576Y007433D02*
X007576Y007713D01*
X007716Y007713D01*
X007762Y007666D01*
X007762Y007573D01*
X006310Y003963D02*
X006263Y003916D01*
X006263Y003683D01*
X006217Y003823D02*
X006310Y003823D01*
X006114Y003823D02*
X006020Y003823D01*
X006067Y003916D02*
X006067Y003683D01*
X005912Y003729D02*
X005912Y003916D01*
X005866Y003963D01*
X005772Y003963D01*
X005726Y003916D01*
X005726Y003729D01*
X005772Y003683D01*
X005866Y003683D01*
X005912Y003729D01*
X006067Y003916D02*
X006114Y003963D01*
X005537Y004483D02*
X005351Y004483D01*
X005444Y004483D02*
X005444Y004763D01*
X005351Y004669D01*
X005243Y004716D02*
X005243Y004529D01*
X005196Y004483D01*
X005103Y004483D01*
X005056Y004529D01*
X005243Y004716D01*
X005196Y004763D01*
X005103Y004763D01*
X005056Y004716D01*
X005056Y004529D01*
X004948Y004529D02*
X004948Y004716D01*
X004761Y004529D01*
X004808Y004483D01*
X004901Y004483D01*
X004948Y004529D01*
X004948Y004716D02*
X004901Y004763D01*
X004808Y004763D01*
X004761Y004716D01*
X004761Y004529D01*
X004654Y004623D02*
X004467Y004623D01*
X004607Y004763D01*
X004607Y004483D01*
X004359Y004483D02*
X004359Y004763D01*
X004172Y004763D02*
X004359Y004483D01*
X004172Y004483D02*
X004172Y004763D01*
X004069Y004763D02*
X003976Y004763D01*
X004022Y004763D02*
X004022Y004483D01*
X003976Y004483D02*
X004069Y004483D01*
X003966Y003963D02*
X003872Y003963D01*
X003826Y003916D01*
X003826Y003729D01*
X003872Y003683D01*
X003966Y003683D01*
X004012Y003729D01*
X004012Y003916D01*
X003966Y003963D01*
X004120Y003869D02*
X004260Y003869D01*
X004307Y003823D01*
X004307Y003683D01*
X004120Y003683D02*
X004120Y003869D01*
D18*
X006881Y009888D02*
X006881Y010238D01*
X006799Y010688D02*
X007032Y010921D01*
X007167Y010921D02*
X007167Y010571D01*
X007167Y010688D02*
X007342Y010688D01*
X007401Y010746D01*
X007401Y010863D01*
X007342Y010921D01*
X007167Y010921D01*
X007032Y010688D02*
X006799Y010921D01*
X006664Y011038D02*
X006431Y011038D01*
X006431Y010688D01*
X006664Y010688D01*
X006547Y010863D02*
X006431Y010863D01*
X006881Y009888D02*
X007114Y009888D01*
X007249Y009946D02*
X007307Y010004D01*
X007482Y010004D01*
X007482Y010063D02*
X007482Y009888D01*
X007307Y009888D01*
X007249Y009946D01*
X007307Y010121D02*
X007424Y010121D01*
X007482Y010063D01*
X007617Y010121D02*
X007792Y010121D01*
X007851Y010063D01*
X007851Y009946D01*
X007792Y009888D01*
X007617Y009888D01*
X007617Y010238D01*
X007594Y010688D02*
X007594Y011038D01*
X007536Y011038D01*
X007781Y010863D02*
X007781Y010746D01*
X007839Y010688D01*
X007956Y010688D01*
X008015Y010746D01*
X008015Y010863D01*
X007956Y010921D01*
X007839Y010921D01*
X007781Y010863D01*
X007652Y010688D02*
X007536Y010688D01*
X008044Y010121D02*
X007986Y010063D01*
X008044Y010004D01*
X008161Y010004D01*
X008219Y009946D01*
X008161Y009888D01*
X007986Y009888D01*
X008044Y010121D02*
X008219Y010121D01*
X008149Y010688D02*
X008149Y010921D01*
X008149Y010804D02*
X008266Y010921D01*
X008325Y010921D01*
X008456Y010863D02*
X008515Y010921D01*
X008631Y010921D01*
X008690Y010863D01*
X008690Y010804D01*
X008456Y010804D01*
X008456Y010746D02*
X008456Y010863D01*
X008456Y010746D02*
X008515Y010688D01*
X008631Y010688D01*
X006568Y020138D02*
X006685Y020254D01*
X006685Y020488D01*
X006451Y020488D02*
X006451Y020254D01*
X006568Y020138D01*
X006317Y020196D02*
X006258Y020138D01*
X006141Y020138D01*
X006083Y020196D01*
X005957Y020196D02*
X005957Y020138D01*
X005899Y020138D01*
X005899Y020196D01*
X005957Y020196D01*
X006083Y020429D02*
X006141Y020488D01*
X006258Y020488D01*
X006317Y020429D01*
X006317Y020371D01*
X006258Y020313D01*
X006317Y020254D01*
X006317Y020196D01*
X006258Y020313D02*
X006200Y020313D01*
X005764Y020371D02*
X005706Y020313D01*
X005764Y020254D01*
X005764Y020196D01*
X005706Y020138D01*
X005589Y020138D01*
X005531Y020196D01*
X005647Y020313D02*
X005706Y020313D01*
X005764Y020371D02*
X005764Y020429D01*
X005706Y020488D01*
X005589Y020488D01*
X005531Y020429D01*
X004382Y020488D02*
X004382Y020254D01*
X004266Y020138D01*
X004149Y020254D01*
X004149Y020488D01*
X004014Y020488D02*
X003781Y020488D01*
X003781Y020313D01*
X003897Y020371D01*
X003956Y020371D01*
X004014Y020313D01*
X004014Y020196D01*
X003956Y020138D01*
X003839Y020138D01*
X003781Y020196D01*
M02*
