G75*
G70*
%OFA0B0*%
%FSLAX24Y24*%
%IPPOS*%
%LPD*%
%AMOC8*
5,1,8,0,0,1.08239X$1,22.5*
%
%ADD10C,0.0515*%
%ADD11C,0.0740*%
%ADD12C,0.0780*%
%ADD13C,0.0650*%
%ADD14R,0.0650X0.0650*%
%ADD15C,0.0600*%
%ADD16C,0.1700*%
%ADD17C,0.0100*%
D10*
X007956Y006613D03*
X007956Y008613D03*
D11*
X008006Y013613D03*
X008006Y014613D03*
X008506Y016113D03*
X007456Y016113D03*
X006506Y016113D03*
X005506Y016113D03*
X005506Y019113D03*
X006506Y019113D03*
X007456Y019113D03*
X008506Y019113D03*
X008506Y020363D03*
X008506Y021363D03*
X006006Y021613D03*
X005006Y021613D03*
X004006Y021613D03*
X008506Y003613D03*
X008506Y002613D03*
X006006Y002613D03*
X005006Y002613D03*
X004006Y002613D03*
D12*
X003006Y004613D03*
X007006Y004613D03*
D13*
X007006Y012113D03*
X006006Y012113D03*
X006006Y014113D03*
X003006Y012113D03*
D14*
X004006Y012113D03*
X005006Y014113D03*
D15*
X004296Y016603D02*
X003696Y016603D01*
X003696Y017603D02*
X004296Y017603D01*
X004296Y018603D02*
X003696Y018603D01*
D16*
X003537Y008613D03*
X004718Y006762D03*
X005899Y008613D03*
D17*
X002456Y004477D02*
X002456Y002063D01*
X009056Y002063D01*
X009056Y022163D01*
X002456Y022163D01*
X002456Y004748D01*
X002531Y004930D01*
X002688Y005087D01*
X002894Y005173D01*
X003117Y005173D01*
X003323Y005087D01*
X003480Y004930D01*
X003566Y004724D01*
X003566Y004501D01*
X003480Y004295D01*
X003323Y004138D01*
X003117Y004053D01*
X002894Y004053D01*
X002688Y004138D01*
X002531Y004295D01*
X002456Y004477D01*
X002456Y004470D02*
X002458Y004470D01*
X002456Y004372D02*
X002499Y004372D01*
X002456Y004273D02*
X002553Y004273D01*
X002456Y004175D02*
X002652Y004175D01*
X002837Y004076D02*
X002456Y004076D01*
X002456Y003978D02*
X008107Y003978D01*
X008048Y003918D02*
X007966Y003720D01*
X007966Y003505D01*
X008048Y003307D01*
X008200Y003155D01*
X008328Y003102D01*
X008306Y003094D01*
X008233Y003057D01*
X008167Y003009D01*
X008109Y002951D01*
X008061Y002885D01*
X008024Y002812D01*
X007998Y002734D01*
X007987Y002663D01*
X008455Y002663D01*
X008455Y002563D01*
X007987Y002563D01*
X007998Y002491D01*
X008024Y002413D01*
X008061Y002340D01*
X008109Y002274D01*
X008167Y002216D01*
X008233Y002168D01*
X008306Y002131D01*
X008384Y002105D01*
X008456Y002094D01*
X008456Y002562D01*
X008556Y002562D01*
X008556Y002094D01*
X008627Y002105D01*
X009056Y002105D01*
X009056Y002204D02*
X008828Y002204D01*
X008844Y002216D02*
X008902Y002274D01*
X008950Y002340D01*
X008988Y002413D01*
X009013Y002491D01*
X009024Y002563D01*
X008556Y002563D01*
X008556Y002663D01*
X009024Y002663D01*
X009013Y002734D01*
X008988Y002812D01*
X008950Y002885D01*
X008902Y002951D01*
X008844Y003009D01*
X008778Y003057D01*
X008705Y003094D01*
X008683Y003102D01*
X008812Y003155D01*
X008963Y003307D01*
X009046Y003505D01*
X009046Y003720D01*
X008963Y003918D01*
X008812Y004070D01*
X008613Y004153D01*
X008398Y004153D01*
X008200Y004070D01*
X008048Y003918D01*
X008032Y003879D02*
X002456Y003879D01*
X002456Y003781D02*
X007991Y003781D01*
X007966Y003682D02*
X002456Y003682D01*
X002456Y003583D02*
X007966Y003583D01*
X007974Y003485D02*
X002456Y003485D01*
X002456Y003386D02*
X008015Y003386D01*
X008067Y003288D02*
X002456Y003288D01*
X002456Y003189D02*
X008165Y003189D01*
X008150Y002992D02*
X006390Y002992D01*
X006463Y002918D02*
X006312Y003070D01*
X006113Y003153D01*
X005898Y003153D01*
X005700Y003070D01*
X005548Y002918D01*
X005506Y002816D01*
X005463Y002918D01*
X005312Y003070D01*
X005113Y003153D01*
X004898Y003153D01*
X004700Y003070D01*
X004548Y002918D01*
X004506Y002816D01*
X004463Y002918D01*
X004312Y003070D01*
X004113Y003153D01*
X003898Y003153D01*
X003700Y003070D01*
X003548Y002918D01*
X003466Y002720D01*
X003466Y002505D01*
X003548Y002307D01*
X003700Y002155D01*
X003898Y002073D01*
X004113Y002073D01*
X004312Y002155D01*
X004463Y002307D01*
X004506Y002409D01*
X004548Y002307D01*
X004700Y002155D01*
X004898Y002073D01*
X005113Y002073D01*
X005312Y002155D01*
X005463Y002307D01*
X005506Y002409D01*
X005548Y002307D01*
X005700Y002155D01*
X005898Y002073D01*
X006113Y002073D01*
X006312Y002155D01*
X006463Y002307D01*
X006546Y002505D01*
X006546Y002720D01*
X006463Y002918D01*
X006474Y002894D02*
X008067Y002894D01*
X008018Y002795D02*
X006515Y002795D01*
X006546Y002697D02*
X007992Y002697D01*
X007997Y002499D02*
X006543Y002499D01*
X006546Y002598D02*
X008455Y002598D01*
X008456Y002499D02*
X008556Y002499D01*
X008556Y002401D02*
X008456Y002401D01*
X008456Y002302D02*
X008556Y002302D01*
X008556Y002204D02*
X008456Y002204D01*
X008456Y002105D02*
X008556Y002105D01*
X008627Y002105D02*
X008705Y002131D01*
X008778Y002168D01*
X008844Y002216D01*
X008923Y002302D02*
X009056Y002302D01*
X009056Y002401D02*
X008981Y002401D01*
X009014Y002499D02*
X009056Y002499D01*
X009056Y002598D02*
X008556Y002598D01*
X008713Y003091D02*
X009056Y003091D01*
X009056Y003189D02*
X008846Y003189D01*
X008945Y003288D02*
X009056Y003288D01*
X009056Y003386D02*
X008996Y003386D01*
X009037Y003485D02*
X009056Y003485D01*
X009046Y003583D02*
X009056Y003583D01*
X009046Y003682D02*
X009056Y003682D01*
X009056Y003781D02*
X009021Y003781D01*
X009056Y003879D02*
X008980Y003879D01*
X008904Y003978D02*
X009056Y003978D01*
X009056Y004076D02*
X008797Y004076D01*
X009056Y004175D02*
X007360Y004175D01*
X007323Y004138D02*
X007480Y004295D01*
X007566Y004501D01*
X007566Y004724D01*
X007480Y004930D01*
X007323Y005087D01*
X007117Y005173D01*
X006894Y005173D01*
X006688Y005087D01*
X006531Y004930D01*
X006446Y004724D01*
X006446Y004501D01*
X006531Y004295D01*
X006688Y004138D01*
X006894Y004053D01*
X007117Y004053D01*
X007323Y004138D01*
X007458Y004273D02*
X009056Y004273D01*
X009056Y004372D02*
X007512Y004372D01*
X007553Y004470D02*
X009056Y004470D01*
X009056Y004569D02*
X007566Y004569D01*
X007566Y004667D02*
X009056Y004667D01*
X009056Y004766D02*
X007548Y004766D01*
X007507Y004865D02*
X009056Y004865D01*
X009056Y004963D02*
X007447Y004963D01*
X007349Y005062D02*
X009056Y005062D01*
X009056Y005160D02*
X007147Y005160D01*
X006864Y005160D02*
X003147Y005160D01*
X003349Y005062D02*
X006663Y005062D01*
X006564Y004963D02*
X003447Y004963D01*
X003507Y004865D02*
X006504Y004865D01*
X006463Y004766D02*
X003548Y004766D01*
X003566Y004667D02*
X006446Y004667D01*
X006446Y004569D02*
X003566Y004569D01*
X003553Y004470D02*
X006458Y004470D01*
X006499Y004372D02*
X003512Y004372D01*
X003458Y004273D02*
X006553Y004273D01*
X006652Y004175D02*
X003360Y004175D01*
X003174Y004076D02*
X006837Y004076D01*
X007174Y004076D02*
X008214Y004076D01*
X008299Y003091D02*
X006262Y003091D01*
X006502Y002401D02*
X008030Y002401D01*
X008088Y002302D02*
X006459Y002302D01*
X006361Y002204D02*
X008184Y002204D01*
X008384Y002105D02*
X006192Y002105D01*
X005819Y002105D02*
X005192Y002105D01*
X005361Y002204D02*
X005651Y002204D01*
X005552Y002302D02*
X005459Y002302D01*
X005502Y002401D02*
X005509Y002401D01*
X005538Y002894D02*
X005474Y002894D01*
X005390Y002992D02*
X005622Y002992D01*
X005749Y003091D02*
X005262Y003091D01*
X004819Y002105D02*
X004192Y002105D01*
X004361Y002204D02*
X004651Y002204D01*
X004552Y002302D02*
X004459Y002302D01*
X004502Y002401D02*
X004509Y002401D01*
X004538Y002894D02*
X004474Y002894D01*
X004390Y002992D02*
X004622Y002992D01*
X004749Y003091D02*
X004262Y003091D01*
X003819Y002105D02*
X002456Y002105D01*
X002456Y002204D02*
X003651Y002204D01*
X003552Y002302D02*
X002456Y002302D01*
X002456Y002401D02*
X003509Y002401D01*
X003468Y002499D02*
X002456Y002499D01*
X002456Y002598D02*
X003466Y002598D01*
X003466Y002697D02*
X002456Y002697D01*
X002456Y002795D02*
X003497Y002795D01*
X003538Y002894D02*
X002456Y002894D01*
X002456Y002992D02*
X003622Y002992D01*
X003749Y003091D02*
X002456Y003091D01*
X002456Y004766D02*
X002463Y004766D01*
X002456Y004865D02*
X002504Y004865D01*
X002456Y004963D02*
X002564Y004963D01*
X002663Y005062D02*
X002456Y005062D01*
X002456Y005160D02*
X002864Y005160D01*
X002456Y005259D02*
X009056Y005259D01*
X009056Y005357D02*
X002456Y005357D01*
X002456Y005456D02*
X009056Y005456D01*
X009056Y005554D02*
X002456Y005554D01*
X002456Y005653D02*
X009056Y005653D01*
X009056Y005751D02*
X002456Y005751D01*
X002456Y005850D02*
X004308Y005850D01*
X004335Y005837D02*
X004441Y005800D01*
X004550Y005775D01*
X004662Y005762D01*
X004668Y005762D01*
X004668Y006712D01*
X003718Y006712D01*
X003718Y006706D01*
X003731Y006594D01*
X003756Y006485D01*
X003793Y006379D01*
X003842Y006278D01*
X003901Y006183D01*
X003971Y006095D01*
X004051Y006015D01*
X004139Y005945D01*
X004234Y005886D01*
X004335Y005837D01*
X004135Y005949D02*
X002456Y005949D01*
X002456Y006047D02*
X004019Y006047D01*
X003931Y006146D02*
X002456Y006146D01*
X002456Y006244D02*
X003863Y006244D01*
X003810Y006343D02*
X002456Y006343D01*
X002456Y006441D02*
X003771Y006441D01*
X003743Y006540D02*
X002456Y006540D01*
X002456Y006638D02*
X003726Y006638D01*
X003718Y006812D02*
X004668Y006812D01*
X004668Y006712D01*
X004768Y006712D01*
X004768Y005762D01*
X004774Y005762D01*
X004886Y005775D01*
X004996Y005800D01*
X005102Y005837D01*
X005203Y005886D01*
X005298Y005945D01*
X005386Y006015D01*
X005465Y006095D01*
X005535Y006183D01*
X005595Y006278D01*
X005644Y006379D01*
X005681Y006485D01*
X005706Y006594D01*
X005718Y006706D01*
X005718Y006712D01*
X004768Y006712D01*
X004768Y006812D01*
X004668Y006812D01*
X004668Y007762D01*
X004662Y007762D01*
X004550Y007750D01*
X004441Y007725D01*
X004335Y007688D01*
X004234Y007639D01*
X004139Y007579D01*
X004051Y007509D01*
X003971Y007430D01*
X003901Y007342D01*
X003842Y007247D01*
X003793Y007145D01*
X003756Y007039D01*
X003731Y006930D01*
X003718Y006818D01*
X003718Y006812D01*
X003720Y006835D02*
X002456Y006835D01*
X002456Y006737D02*
X004668Y006737D01*
X004668Y006835D02*
X004768Y006835D01*
X004768Y006812D02*
X004768Y007762D01*
X004774Y007762D01*
X004886Y007750D01*
X004996Y007725D01*
X005102Y007688D01*
X005203Y007639D01*
X005298Y007579D01*
X005386Y007509D01*
X005465Y007430D01*
X005535Y007342D01*
X005595Y007247D01*
X005644Y007145D01*
X005681Y007039D01*
X005706Y006930D01*
X005718Y006818D01*
X005718Y006812D01*
X004768Y006812D01*
X004768Y006737D02*
X007544Y006737D01*
X007528Y006698D02*
X007528Y006528D01*
X007593Y006370D01*
X007714Y006250D01*
X007871Y006185D01*
X008041Y006185D01*
X008198Y006250D01*
X008318Y006370D01*
X008383Y006528D01*
X008383Y006698D01*
X008318Y006855D01*
X008198Y006975D01*
X008041Y007040D01*
X007871Y007040D01*
X007714Y006975D01*
X007593Y006855D01*
X007528Y006698D01*
X007528Y006638D02*
X005711Y006638D01*
X005693Y006540D02*
X007528Y006540D01*
X007564Y006441D02*
X005665Y006441D01*
X005626Y006343D02*
X007621Y006343D01*
X007728Y006244D02*
X005574Y006244D01*
X005506Y006146D02*
X009056Y006146D01*
X009056Y006244D02*
X008183Y006244D01*
X008290Y006343D02*
X009056Y006343D01*
X009056Y006441D02*
X008347Y006441D01*
X008383Y006540D02*
X009056Y006540D01*
X009056Y006638D02*
X008383Y006638D01*
X008367Y006737D02*
X009056Y006737D01*
X009056Y006835D02*
X008326Y006835D01*
X008239Y006934D02*
X009056Y006934D01*
X009056Y007032D02*
X008059Y007032D01*
X007852Y007032D02*
X005682Y007032D01*
X005705Y006934D02*
X007672Y006934D01*
X007585Y006835D02*
X005716Y006835D01*
X005649Y007131D02*
X009056Y007131D01*
X009056Y007230D02*
X005603Y007230D01*
X005544Y007328D02*
X009056Y007328D01*
X009056Y007427D02*
X005467Y007427D01*
X005365Y007525D02*
X009056Y007525D01*
X009056Y007624D02*
X006150Y007624D01*
X006034Y007593D02*
X006293Y007662D01*
X006526Y007796D01*
X006716Y007986D01*
X006850Y008219D01*
X006919Y008478D01*
X006919Y008747D01*
X006850Y009006D01*
X006716Y009239D01*
X006526Y009429D01*
X006293Y009563D01*
X006034Y009633D01*
X005765Y009633D01*
X005506Y009563D01*
X005273Y009429D01*
X005083Y009239D01*
X004949Y009006D01*
X004879Y008747D01*
X004879Y008478D01*
X004949Y008219D01*
X005083Y007986D01*
X005273Y007796D01*
X005506Y007662D01*
X005765Y007593D01*
X006034Y007593D01*
X006397Y007722D02*
X009056Y007722D01*
X009056Y007821D02*
X006550Y007821D01*
X006649Y007919D02*
X009056Y007919D01*
X009056Y008018D02*
X006734Y008018D01*
X006791Y008116D02*
X009056Y008116D01*
X009056Y008215D02*
X008113Y008215D01*
X008041Y008185D02*
X008198Y008250D01*
X008318Y008370D01*
X008383Y008528D01*
X008383Y008698D01*
X008318Y008855D01*
X008198Y008975D01*
X008041Y009040D01*
X007871Y009040D01*
X007714Y008975D01*
X007593Y008855D01*
X007528Y008698D01*
X007528Y008528D01*
X007593Y008370D01*
X007714Y008250D01*
X007871Y008185D01*
X008041Y008185D01*
X007798Y008215D02*
X006848Y008215D01*
X006875Y008314D02*
X007650Y008314D01*
X007576Y008412D02*
X006902Y008412D01*
X006919Y008511D02*
X007535Y008511D01*
X007528Y008609D02*
X006919Y008609D01*
X006919Y008708D02*
X007532Y008708D01*
X007573Y008806D02*
X006903Y008806D01*
X006877Y008905D02*
X007643Y008905D01*
X007782Y009003D02*
X006851Y009003D01*
X006795Y009102D02*
X009056Y009102D01*
X009056Y009200D02*
X006738Y009200D01*
X006655Y009299D02*
X009056Y009299D01*
X009056Y009398D02*
X006557Y009398D01*
X006409Y009496D02*
X009056Y009496D01*
X009056Y009595D02*
X006175Y009595D01*
X005623Y009595D02*
X003729Y009595D01*
X003705Y009600D02*
X003593Y009613D01*
X003587Y009613D01*
X003587Y008663D01*
X003487Y008663D01*
X003487Y009613D01*
X003481Y009613D01*
X003369Y009600D01*
X003260Y009575D01*
X003154Y009538D01*
X003053Y009489D01*
X002958Y009429D01*
X002870Y009359D01*
X002790Y009280D01*
X002720Y009192D01*
X002661Y009097D01*
X002612Y008996D01*
X002575Y008890D01*
X002550Y008780D01*
X002537Y008669D01*
X002537Y008663D01*
X003487Y008663D01*
X003487Y008563D01*
X002537Y008563D01*
X002537Y008556D01*
X002550Y008445D01*
X002575Y008335D01*
X002612Y008229D01*
X002661Y008128D01*
X002720Y008033D01*
X002790Y007945D01*
X002870Y007866D01*
X002958Y007796D01*
X003053Y007736D01*
X003154Y007687D01*
X003260Y007650D01*
X003369Y007625D01*
X003481Y007613D01*
X003487Y007613D01*
X003487Y008562D01*
X003587Y008562D01*
X003587Y007613D01*
X003593Y007613D01*
X003705Y007625D01*
X003814Y007650D01*
X003920Y007687D01*
X004022Y007736D01*
X004117Y007796D01*
X004205Y007866D01*
X004284Y007945D01*
X004354Y008033D01*
X004414Y008128D01*
X004462Y008229D01*
X004500Y008335D01*
X004525Y008445D01*
X004537Y008556D01*
X004537Y008563D01*
X003587Y008563D01*
X003587Y008663D01*
X004537Y008663D01*
X004537Y008669D01*
X004525Y008780D01*
X004500Y008890D01*
X004462Y008996D01*
X004414Y009097D01*
X004354Y009192D01*
X004284Y009280D01*
X004205Y009359D01*
X004117Y009429D01*
X004022Y009489D01*
X003920Y009538D01*
X003814Y009575D01*
X003705Y009600D01*
X003587Y009595D02*
X003487Y009595D01*
X003487Y009496D02*
X003587Y009496D01*
X003587Y009398D02*
X003487Y009398D01*
X003487Y009299D02*
X003587Y009299D01*
X003587Y009200D02*
X003487Y009200D01*
X003487Y009102D02*
X003587Y009102D01*
X003587Y009003D02*
X003487Y009003D01*
X003487Y008905D02*
X003587Y008905D01*
X003587Y008806D02*
X003487Y008806D01*
X003487Y008708D02*
X003587Y008708D01*
X003587Y008609D02*
X004879Y008609D01*
X004879Y008511D02*
X004532Y008511D01*
X004517Y008412D02*
X004897Y008412D01*
X004924Y008314D02*
X004492Y008314D01*
X004456Y008215D02*
X004951Y008215D01*
X005008Y008116D02*
X004406Y008116D01*
X004342Y008018D02*
X005065Y008018D01*
X005150Y007919D02*
X004258Y007919D01*
X004148Y007821D02*
X005249Y007821D01*
X005227Y007624D02*
X005649Y007624D01*
X005401Y007722D02*
X005002Y007722D01*
X004768Y007722D02*
X004668Y007722D01*
X004668Y007624D02*
X004768Y007624D01*
X004768Y007525D02*
X004668Y007525D01*
X004668Y007427D02*
X004768Y007427D01*
X004768Y007328D02*
X004668Y007328D01*
X004668Y007230D02*
X004768Y007230D01*
X004768Y007131D02*
X004668Y007131D01*
X004668Y007032D02*
X004768Y007032D01*
X004768Y006934D02*
X004668Y006934D01*
X004668Y006638D02*
X004768Y006638D01*
X004768Y006540D02*
X004668Y006540D01*
X004668Y006441D02*
X004768Y006441D01*
X004768Y006343D02*
X004668Y006343D01*
X004668Y006244D02*
X004768Y006244D01*
X004768Y006146D02*
X004668Y006146D01*
X004668Y006047D02*
X004768Y006047D01*
X004768Y005949D02*
X004668Y005949D01*
X004668Y005850D02*
X004768Y005850D01*
X005129Y005850D02*
X009056Y005850D01*
X009056Y005949D02*
X005302Y005949D01*
X005417Y006047D02*
X009056Y006047D01*
X009056Y008314D02*
X008261Y008314D01*
X008335Y008412D02*
X009056Y008412D01*
X009056Y008511D02*
X008376Y008511D01*
X008383Y008609D02*
X009056Y008609D01*
X009056Y008708D02*
X008379Y008708D01*
X008338Y008806D02*
X009056Y008806D01*
X009056Y008905D02*
X008268Y008905D01*
X008129Y009003D02*
X009056Y009003D01*
X009056Y009693D02*
X002456Y009693D01*
X002456Y009595D02*
X003346Y009595D01*
X003067Y009496D02*
X002456Y009496D01*
X002456Y009398D02*
X002918Y009398D01*
X002809Y009299D02*
X002456Y009299D01*
X002456Y009200D02*
X002727Y009200D01*
X002664Y009102D02*
X002456Y009102D01*
X002456Y009003D02*
X002615Y009003D01*
X002580Y008905D02*
X002456Y008905D01*
X002456Y008806D02*
X002556Y008806D01*
X002542Y008708D02*
X002456Y008708D01*
X002456Y008609D02*
X003487Y008609D01*
X003487Y008511D02*
X003587Y008511D01*
X003587Y008412D02*
X003487Y008412D01*
X003487Y008314D02*
X003587Y008314D01*
X003587Y008215D02*
X003487Y008215D01*
X003487Y008116D02*
X003587Y008116D01*
X003587Y008018D02*
X003487Y008018D01*
X003487Y007919D02*
X003587Y007919D01*
X003587Y007821D02*
X003487Y007821D01*
X003487Y007722D02*
X003587Y007722D01*
X003587Y007624D02*
X003487Y007624D01*
X003382Y007624D02*
X002456Y007624D01*
X002456Y007722D02*
X003081Y007722D01*
X002926Y007821D02*
X002456Y007821D01*
X002456Y007919D02*
X002816Y007919D01*
X002732Y008018D02*
X002456Y008018D01*
X002456Y008116D02*
X002668Y008116D01*
X002619Y008215D02*
X002456Y008215D01*
X002456Y008314D02*
X002582Y008314D01*
X002557Y008412D02*
X002456Y008412D01*
X002456Y008511D02*
X002542Y008511D01*
X002456Y007525D02*
X004071Y007525D01*
X003969Y007427D02*
X002456Y007427D01*
X002456Y007328D02*
X003893Y007328D01*
X003833Y007230D02*
X002456Y007230D01*
X002456Y007131D02*
X003788Y007131D01*
X003754Y007032D02*
X002456Y007032D01*
X002456Y006934D02*
X003732Y006934D01*
X003692Y007624D02*
X004210Y007624D01*
X003993Y007722D02*
X004434Y007722D01*
X004533Y008708D02*
X004879Y008708D01*
X004895Y008806D02*
X004519Y008806D01*
X004494Y008905D02*
X004922Y008905D01*
X004948Y009003D02*
X004459Y009003D01*
X004411Y009102D02*
X005004Y009102D01*
X005061Y009200D02*
X004347Y009200D01*
X004265Y009299D02*
X005143Y009299D01*
X005242Y009398D02*
X004157Y009398D01*
X004007Y009496D02*
X005390Y009496D01*
X005894Y011649D02*
X005968Y011638D01*
X005987Y011638D01*
X005987Y012093D01*
X006025Y012093D01*
X006025Y011638D01*
X006043Y011638D01*
X006117Y011649D01*
X006188Y011672D01*
X006255Y011706D01*
X006315Y011750D01*
X006368Y011803D01*
X006412Y011864D01*
X006446Y011930D01*
X006469Y012001D01*
X006481Y012075D01*
X006481Y012094D01*
X006025Y012094D01*
X006025Y012131D01*
X006481Y012131D01*
X006481Y012150D01*
X006469Y012224D01*
X006446Y012295D01*
X006412Y012362D01*
X006368Y012422D01*
X006315Y012475D01*
X006255Y012519D01*
X006188Y012553D01*
X006117Y012576D01*
X006043Y012588D01*
X006025Y012588D01*
X006025Y012132D01*
X005987Y012132D01*
X005987Y012588D01*
X005968Y012588D01*
X005894Y012576D01*
X005823Y012553D01*
X005757Y012519D01*
X005696Y012475D01*
X005643Y012422D01*
X005599Y012362D01*
X005565Y012295D01*
X005542Y012224D01*
X005531Y012150D01*
X005531Y012131D01*
X005986Y012131D01*
X005986Y012094D01*
X005531Y012094D01*
X005531Y012075D01*
X005542Y012001D01*
X005565Y011930D01*
X005599Y011864D01*
X005643Y011803D01*
X005696Y011750D01*
X005757Y011706D01*
X005823Y011672D01*
X005894Y011649D01*
X005849Y011664D02*
X004447Y011664D01*
X004401Y011618D02*
X004501Y011717D01*
X004501Y012508D01*
X004401Y012608D01*
X003610Y012608D01*
X003511Y012508D01*
X003511Y011717D01*
X003610Y011618D01*
X004401Y011618D01*
X004501Y011763D02*
X005684Y011763D01*
X005601Y011861D02*
X004501Y011861D01*
X004501Y011960D02*
X005556Y011960D01*
X005533Y012058D02*
X004501Y012058D01*
X004501Y012157D02*
X005532Y012157D01*
X005553Y012255D02*
X004501Y012255D01*
X004501Y012354D02*
X005596Y012354D01*
X005674Y012452D02*
X004501Y012452D01*
X004458Y012551D02*
X005820Y012551D01*
X005987Y012551D02*
X006025Y012551D01*
X006025Y012452D02*
X005987Y012452D01*
X005987Y012354D02*
X006025Y012354D01*
X006025Y012255D02*
X005987Y012255D01*
X005987Y012157D02*
X006025Y012157D01*
X006025Y012058D02*
X005987Y012058D01*
X005987Y011960D02*
X006025Y011960D01*
X006025Y011861D02*
X005987Y011861D01*
X005987Y011763D02*
X006025Y011763D01*
X006025Y011664D02*
X005987Y011664D01*
X006162Y011664D02*
X006795Y011664D01*
X006725Y011693D02*
X006907Y011618D01*
X007104Y011618D01*
X007286Y011693D01*
X007425Y011832D01*
X007501Y012014D01*
X007501Y012211D01*
X007425Y012393D01*
X007286Y012532D01*
X007104Y012608D01*
X006907Y012608D01*
X006725Y012532D01*
X006586Y012393D01*
X006511Y012211D01*
X006511Y012014D01*
X006586Y011832D01*
X006725Y011693D01*
X006656Y011763D02*
X006327Y011763D01*
X006410Y011861D02*
X006574Y011861D01*
X006533Y011960D02*
X006455Y011960D01*
X006478Y012058D02*
X006511Y012058D01*
X006511Y012157D02*
X006480Y012157D01*
X006459Y012255D02*
X006529Y012255D01*
X006570Y012354D02*
X006416Y012354D01*
X006338Y012452D02*
X006645Y012452D01*
X006770Y012551D02*
X006192Y012551D01*
X006043Y013638D02*
X006117Y013649D01*
X006188Y013672D01*
X006255Y013706D01*
X006315Y013750D01*
X006368Y013803D01*
X006412Y013864D01*
X006446Y013930D01*
X006469Y014001D01*
X006481Y014075D01*
X006481Y014094D01*
X006025Y014094D01*
X006025Y014131D01*
X006481Y014131D01*
X006481Y014150D01*
X006469Y014224D01*
X006446Y014295D01*
X006412Y014362D01*
X006368Y014422D01*
X006315Y014475D01*
X006255Y014519D01*
X006188Y014553D01*
X006117Y014576D01*
X006043Y014588D01*
X006025Y014588D01*
X006025Y014132D01*
X005987Y014132D01*
X005987Y014588D01*
X005968Y014588D01*
X005894Y014576D01*
X005823Y014553D01*
X005757Y014519D01*
X005696Y014475D01*
X005643Y014422D01*
X005599Y014362D01*
X005565Y014295D01*
X005542Y014224D01*
X005531Y014150D01*
X005531Y014131D01*
X005986Y014131D01*
X005986Y014094D01*
X005531Y014094D01*
X005531Y014075D01*
X005542Y014001D01*
X005565Y013930D01*
X005599Y013864D01*
X005643Y013803D01*
X005696Y013750D01*
X005757Y013706D01*
X005823Y013672D01*
X005894Y013649D01*
X005968Y013638D01*
X005987Y013638D01*
X005987Y014093D01*
X006025Y014093D01*
X006025Y013638D01*
X006043Y013638D01*
X006025Y013733D02*
X005987Y013733D01*
X005987Y013832D02*
X006025Y013832D01*
X006025Y013931D02*
X005987Y013931D01*
X005987Y014029D02*
X006025Y014029D01*
X006025Y014128D02*
X007765Y014128D01*
X007806Y014094D02*
X007733Y014057D01*
X007667Y014009D01*
X007609Y013951D01*
X007561Y013885D01*
X007524Y013812D01*
X007498Y013734D01*
X007486Y013654D01*
X007486Y013643D01*
X007975Y013643D01*
X007975Y013583D01*
X007486Y013583D01*
X007486Y013572D01*
X007498Y013491D01*
X007524Y013413D01*
X007561Y013340D01*
X007609Y013274D01*
X007667Y013216D01*
X007733Y013168D01*
X007806Y013131D01*
X007884Y013105D01*
X007965Y013093D01*
X007976Y013093D01*
X007976Y013582D01*
X008036Y013582D01*
X008036Y013093D01*
X008047Y013093D01*
X008127Y013105D01*
X008205Y013131D01*
X008278Y013168D01*
X008344Y013216D01*
X008402Y013274D01*
X008450Y013340D01*
X008488Y013413D01*
X008513Y013491D01*
X008526Y013572D01*
X008526Y013583D01*
X008036Y013583D01*
X008036Y013643D01*
X008526Y013643D01*
X008526Y013654D01*
X008513Y013734D01*
X008488Y013812D01*
X008450Y013885D01*
X008402Y013951D01*
X008344Y014009D01*
X008278Y014057D01*
X008205Y014094D01*
X008183Y014102D01*
X008312Y014155D01*
X008463Y014307D01*
X008546Y014505D01*
X008546Y014720D01*
X008463Y014918D01*
X008312Y015070D01*
X008113Y015153D01*
X007898Y015153D01*
X007700Y015070D01*
X007548Y014918D01*
X007466Y014720D01*
X007466Y014505D01*
X007548Y014307D01*
X007700Y014155D01*
X007828Y014102D01*
X007806Y014094D01*
X007975Y013635D02*
X005418Y013635D01*
X005401Y013618D02*
X005501Y013717D01*
X005501Y014508D01*
X005401Y014608D01*
X004610Y014608D01*
X004511Y014508D01*
X004511Y013717D01*
X004610Y013618D01*
X005401Y013618D01*
X005501Y013733D02*
X005719Y013733D01*
X005622Y013832D02*
X005501Y013832D01*
X005501Y013931D02*
X005565Y013931D01*
X005538Y014029D02*
X005501Y014029D01*
X005501Y014128D02*
X005986Y014128D01*
X005987Y014226D02*
X006025Y014226D01*
X006025Y014325D02*
X005987Y014325D01*
X005987Y014423D02*
X006025Y014423D01*
X006025Y014522D02*
X005987Y014522D01*
X005763Y014522D02*
X005487Y014522D01*
X005501Y014423D02*
X005645Y014423D01*
X005581Y014325D02*
X005501Y014325D01*
X005501Y014226D02*
X005543Y014226D01*
X005613Y015573D02*
X005398Y015573D01*
X005200Y015655D01*
X005048Y015807D01*
X004966Y016005D01*
X004966Y016220D01*
X005048Y016418D01*
X005200Y016570D01*
X005398Y016653D01*
X005613Y016653D01*
X005812Y016570D01*
X005963Y016418D01*
X006006Y016316D01*
X006048Y016418D01*
X006200Y016570D01*
X006398Y016653D01*
X006613Y016653D01*
X006812Y016570D01*
X006963Y016418D01*
X006992Y016349D01*
X007011Y016385D01*
X007059Y016451D01*
X007117Y016509D01*
X007183Y016557D01*
X007256Y016594D01*
X007334Y016620D01*
X007415Y016633D01*
X007417Y016633D01*
X007417Y016151D01*
X007494Y016151D01*
X007494Y016633D01*
X007497Y016633D01*
X007577Y016620D01*
X007655Y016594D01*
X007728Y016557D01*
X007794Y016509D01*
X007852Y016451D01*
X007900Y016385D01*
X007938Y016312D01*
X007963Y016234D01*
X007966Y016216D01*
X007966Y016220D01*
X008048Y016418D01*
X008200Y016570D01*
X008398Y016653D01*
X008613Y016653D01*
X008812Y016570D01*
X008963Y016418D01*
X009046Y016220D01*
X009046Y016005D01*
X008963Y015807D01*
X008812Y015655D01*
X008613Y015573D01*
X008398Y015573D01*
X008200Y015655D01*
X008048Y015807D01*
X007966Y016005D01*
X007966Y016009D01*
X007963Y015991D01*
X007938Y015913D01*
X007900Y015840D01*
X007852Y015774D01*
X007794Y015716D01*
X007728Y015668D01*
X007655Y015631D01*
X007577Y015605D01*
X007497Y015593D01*
X007494Y015593D01*
X007494Y016074D01*
X007417Y016074D01*
X007417Y015593D01*
X007415Y015593D01*
X007334Y015605D01*
X007256Y015631D01*
X007183Y015668D01*
X007117Y015716D01*
X007059Y015774D01*
X007011Y015840D01*
X006992Y015877D01*
X006963Y015807D01*
X006812Y015655D01*
X006613Y015573D01*
X006398Y015573D01*
X006200Y015655D01*
X006048Y015807D01*
X006006Y015909D01*
X005963Y015807D01*
X005812Y015655D01*
X005613Y015573D01*
X005693Y015606D02*
X006318Y015606D01*
X006150Y015704D02*
X005861Y015704D01*
X005960Y015803D02*
X006052Y015803D01*
X006009Y015901D02*
X006003Y015901D01*
X005974Y016394D02*
X006038Y016394D01*
X006122Y016493D02*
X005889Y016493D01*
X005761Y016591D02*
X006250Y016591D01*
X006693Y015606D02*
X007333Y015606D01*
X007417Y015606D02*
X007494Y015606D01*
X007579Y015606D02*
X008318Y015606D01*
X008150Y015704D02*
X007778Y015704D01*
X007873Y015803D02*
X008052Y015803D01*
X008009Y015901D02*
X007932Y015901D01*
X007964Y016000D02*
X007968Y016000D01*
X007943Y016296D02*
X007997Y016296D01*
X008038Y016394D02*
X007894Y016394D01*
X007811Y016493D02*
X008122Y016493D01*
X008250Y016591D02*
X007662Y016591D01*
X007494Y016591D02*
X007417Y016591D01*
X007417Y016493D02*
X007494Y016493D01*
X007494Y016394D02*
X007417Y016394D01*
X007417Y016296D02*
X007494Y016296D01*
X007494Y016197D02*
X007417Y016197D01*
X007417Y016000D02*
X007494Y016000D01*
X007494Y015901D02*
X007417Y015901D01*
X007417Y015803D02*
X007494Y015803D01*
X007494Y015704D02*
X007417Y015704D01*
X007133Y015704D02*
X006861Y015704D01*
X006960Y015803D02*
X007038Y015803D01*
X007017Y016394D02*
X006974Y016394D01*
X006889Y016493D02*
X007100Y016493D01*
X007250Y016591D02*
X006761Y016591D01*
X007547Y014916D02*
X002456Y014916D01*
X002456Y015014D02*
X007644Y015014D01*
X007506Y014817D02*
X002456Y014817D01*
X002456Y014719D02*
X007466Y014719D01*
X007466Y014620D02*
X002456Y014620D01*
X002456Y014522D02*
X004524Y014522D01*
X004511Y014423D02*
X002456Y014423D01*
X002456Y014325D02*
X004511Y014325D01*
X004511Y014226D02*
X002456Y014226D01*
X002456Y014128D02*
X004511Y014128D01*
X004511Y014029D02*
X002456Y014029D01*
X002456Y013931D02*
X004511Y013931D01*
X004511Y013832D02*
X002456Y013832D01*
X002456Y013733D02*
X004511Y013733D01*
X004593Y013635D02*
X002456Y013635D01*
X002456Y013536D02*
X007491Y013536D01*
X007516Y013438D02*
X002456Y013438D01*
X002456Y013339D02*
X007561Y013339D01*
X007642Y013241D02*
X002456Y013241D01*
X002456Y013142D02*
X007784Y013142D01*
X007976Y013142D02*
X008036Y013142D01*
X008036Y013241D02*
X007976Y013241D01*
X007976Y013339D02*
X008036Y013339D01*
X008036Y013438D02*
X007976Y013438D01*
X007976Y013536D02*
X008036Y013536D01*
X008036Y013635D02*
X009056Y013635D01*
X009056Y013733D02*
X008513Y013733D01*
X008477Y013832D02*
X009056Y013832D01*
X009056Y013931D02*
X008417Y013931D01*
X008317Y014029D02*
X009056Y014029D01*
X009056Y014128D02*
X008246Y014128D01*
X008383Y014226D02*
X009056Y014226D01*
X009056Y014325D02*
X008471Y014325D01*
X008512Y014423D02*
X009056Y014423D01*
X009056Y014522D02*
X008546Y014522D01*
X008546Y014620D02*
X009056Y014620D01*
X009056Y014719D02*
X008546Y014719D01*
X008505Y014817D02*
X009056Y014817D01*
X009056Y014916D02*
X008464Y014916D01*
X008367Y015014D02*
X009056Y015014D01*
X009056Y015113D02*
X008209Y015113D01*
X007803Y015113D02*
X002456Y015113D01*
X002456Y015212D02*
X009056Y015212D01*
X009056Y015310D02*
X002456Y015310D01*
X002456Y015409D02*
X009056Y015409D01*
X009056Y015507D02*
X002456Y015507D01*
X002456Y015606D02*
X005318Y015606D01*
X005150Y015704D02*
X002456Y015704D01*
X002456Y015803D02*
X005052Y015803D01*
X005009Y015901D02*
X002456Y015901D01*
X002456Y016000D02*
X004968Y016000D01*
X004966Y016098D02*
X002456Y016098D01*
X002456Y016197D02*
X003447Y016197D01*
X003429Y016204D02*
X003602Y016133D01*
X004389Y016133D01*
X004562Y016204D01*
X004694Y016336D01*
X004766Y016509D01*
X004766Y016696D01*
X004694Y016869D01*
X004562Y017001D01*
X004389Y017073D01*
X003602Y017073D01*
X003429Y017001D01*
X003297Y016869D01*
X003226Y016696D01*
X003226Y016509D01*
X003297Y016336D01*
X003429Y016204D01*
X003338Y016296D02*
X002456Y016296D01*
X002456Y016394D02*
X003273Y016394D01*
X003232Y016493D02*
X002456Y016493D01*
X002456Y016591D02*
X003226Y016591D01*
X003226Y016690D02*
X002456Y016690D01*
X002456Y016788D02*
X003264Y016788D01*
X003315Y016887D02*
X002456Y016887D01*
X002456Y016985D02*
X003414Y016985D01*
X003482Y017182D02*
X002456Y017182D01*
X002456Y017084D02*
X009056Y017084D01*
X009056Y017182D02*
X004509Y017182D01*
X004562Y017204D02*
X004694Y017336D01*
X004766Y017509D01*
X004766Y017696D01*
X004694Y017869D01*
X004562Y018001D01*
X004389Y018073D01*
X003602Y018073D01*
X003429Y018001D01*
X003297Y017869D01*
X003226Y017696D01*
X003226Y017509D01*
X003297Y017336D01*
X003429Y017204D01*
X003602Y017133D01*
X004389Y017133D01*
X004562Y017204D01*
X004639Y017281D02*
X009056Y017281D01*
X009056Y017380D02*
X004712Y017380D01*
X004753Y017478D02*
X009056Y017478D01*
X009056Y017577D02*
X004766Y017577D01*
X004766Y017675D02*
X009056Y017675D01*
X009056Y017774D02*
X004734Y017774D01*
X004691Y017872D02*
X009056Y017872D01*
X009056Y017971D02*
X004592Y017971D01*
X004474Y018168D02*
X009056Y018168D01*
X009056Y018266D02*
X004624Y018266D01*
X004562Y018204D02*
X004694Y018336D01*
X004766Y018509D01*
X004766Y018696D01*
X004694Y018869D01*
X004562Y019001D01*
X004389Y019073D01*
X003602Y019073D01*
X003429Y019001D01*
X003297Y018869D01*
X003226Y018696D01*
X003226Y018509D01*
X003297Y018336D01*
X003429Y018204D01*
X003602Y018133D01*
X004389Y018133D01*
X004562Y018204D01*
X004397Y018069D02*
X009056Y018069D01*
X009056Y018365D02*
X004706Y018365D01*
X004747Y018464D02*
X009056Y018464D01*
X009056Y018562D02*
X004766Y018562D01*
X004766Y018661D02*
X005194Y018661D01*
X005200Y018655D02*
X005048Y018807D01*
X004966Y019005D01*
X004966Y019220D01*
X005048Y019418D01*
X005200Y019570D01*
X005398Y019653D01*
X005613Y019653D01*
X005812Y019570D01*
X005963Y019418D01*
X006006Y019316D01*
X006048Y019418D01*
X006200Y019570D01*
X006398Y019653D01*
X006613Y019653D01*
X006812Y019570D01*
X006963Y019418D01*
X006981Y019377D01*
X006998Y019418D01*
X007150Y019570D01*
X007348Y019653D01*
X007563Y019653D01*
X007762Y019570D01*
X007913Y019418D01*
X007981Y019256D01*
X008048Y019418D01*
X008200Y019570D01*
X008398Y019653D01*
X008613Y019653D01*
X008812Y019570D01*
X008963Y019418D01*
X009046Y019220D01*
X009046Y019005D01*
X008963Y018807D01*
X008812Y018655D01*
X008613Y018573D01*
X008398Y018573D01*
X008200Y018655D01*
X008048Y018807D01*
X007981Y018969D01*
X007913Y018807D01*
X007762Y018655D01*
X007563Y018573D01*
X007348Y018573D01*
X007150Y018655D01*
X006998Y018807D01*
X006981Y018848D01*
X006963Y018807D01*
X006812Y018655D01*
X006613Y018573D01*
X006398Y018573D01*
X006200Y018655D01*
X006048Y018807D01*
X006006Y018909D01*
X005963Y018807D01*
X005812Y018655D01*
X005613Y018573D01*
X005398Y018573D01*
X005200Y018655D01*
X005095Y018759D02*
X004740Y018759D01*
X004699Y018858D02*
X005027Y018858D01*
X004986Y018956D02*
X004607Y018956D01*
X004432Y019055D02*
X004966Y019055D01*
X004966Y019153D02*
X002456Y019153D01*
X002456Y019055D02*
X003559Y019055D01*
X003385Y018956D02*
X002456Y018956D01*
X002456Y018858D02*
X003293Y018858D01*
X003252Y018759D02*
X002456Y018759D01*
X002456Y018661D02*
X003226Y018661D01*
X003226Y018562D02*
X002456Y018562D01*
X002456Y018464D02*
X003245Y018464D01*
X003285Y018365D02*
X002456Y018365D01*
X002456Y018266D02*
X003367Y018266D01*
X003517Y018168D02*
X002456Y018168D01*
X002456Y018069D02*
X003594Y018069D01*
X003399Y017971D02*
X002456Y017971D01*
X002456Y017872D02*
X003301Y017872D01*
X003258Y017774D02*
X002456Y017774D01*
X002456Y017675D02*
X003226Y017675D01*
X003226Y017577D02*
X002456Y017577D01*
X002456Y017478D02*
X003239Y017478D01*
X003279Y017380D02*
X002456Y017380D01*
X002456Y017281D02*
X003353Y017281D01*
X002456Y019252D02*
X004979Y019252D01*
X005020Y019350D02*
X002456Y019350D01*
X002456Y019449D02*
X005078Y019449D01*
X005177Y019547D02*
X002456Y019547D01*
X002456Y019646D02*
X005382Y019646D01*
X005629Y019646D02*
X006382Y019646D01*
X006177Y019547D02*
X005834Y019547D01*
X005933Y019449D02*
X006078Y019449D01*
X006020Y019350D02*
X005992Y019350D01*
X005984Y018858D02*
X006027Y018858D01*
X006095Y018759D02*
X005916Y018759D01*
X005817Y018661D02*
X006194Y018661D01*
X006629Y019646D02*
X007332Y019646D01*
X007127Y019547D02*
X006834Y019547D01*
X006933Y019449D02*
X007028Y019449D01*
X007045Y018759D02*
X006916Y018759D01*
X006817Y018661D02*
X007144Y018661D01*
X007579Y019646D02*
X008382Y019646D01*
X008384Y019855D02*
X008306Y019881D01*
X008233Y019918D01*
X008167Y019966D01*
X008109Y020024D01*
X008061Y020090D01*
X008024Y020163D01*
X007998Y020241D01*
X007987Y020313D01*
X008455Y020313D01*
X008455Y020413D01*
X007987Y020413D01*
X007998Y020484D01*
X008024Y020562D01*
X008061Y020635D01*
X008109Y020701D01*
X008167Y020759D01*
X008233Y020807D01*
X008306Y020844D01*
X008328Y020852D01*
X008200Y020905D01*
X008048Y021057D01*
X007966Y021255D01*
X007966Y021470D01*
X008048Y021668D01*
X008200Y021820D01*
X008398Y021903D01*
X008613Y021903D01*
X008812Y021820D01*
X008963Y021668D01*
X009046Y021470D01*
X009046Y021255D01*
X008963Y021057D01*
X008812Y020905D01*
X008683Y020852D01*
X008705Y020844D01*
X008778Y020807D01*
X008844Y020759D01*
X008902Y020701D01*
X008950Y020635D01*
X008988Y020562D01*
X009013Y020484D01*
X009024Y020413D01*
X008556Y020413D01*
X008556Y020313D01*
X009024Y020313D01*
X009013Y020241D01*
X008988Y020163D01*
X008950Y020090D01*
X008902Y020024D01*
X008844Y019966D01*
X008778Y019918D01*
X008705Y019881D01*
X008627Y019855D01*
X008556Y019844D01*
X008556Y020312D01*
X008456Y020312D01*
X008456Y019844D01*
X008384Y019855D01*
X008456Y019942D02*
X008556Y019942D01*
X008556Y020040D02*
X008456Y020040D01*
X008456Y020139D02*
X008556Y020139D01*
X008556Y020237D02*
X008456Y020237D01*
X008455Y020336D02*
X002456Y020336D01*
X002456Y020434D02*
X007991Y020434D01*
X008014Y020533D02*
X002456Y020533D01*
X002456Y020631D02*
X008059Y020631D01*
X008138Y020730D02*
X002456Y020730D01*
X002456Y020829D02*
X008275Y020829D01*
X008177Y020927D02*
X002456Y020927D01*
X002456Y021026D02*
X008079Y021026D01*
X008020Y021124D02*
X006185Y021124D01*
X006205Y021131D02*
X006127Y021105D01*
X006056Y021094D01*
X006056Y021562D01*
X005956Y021562D01*
X005956Y021094D01*
X005884Y021105D01*
X005806Y021131D01*
X005733Y021168D01*
X005667Y021216D01*
X005609Y021274D01*
X005561Y021340D01*
X005524Y021413D01*
X005517Y021435D01*
X005463Y021307D01*
X005312Y021155D01*
X005113Y021073D01*
X004898Y021073D01*
X004700Y021155D01*
X004548Y021307D01*
X004506Y021409D01*
X004463Y021307D01*
X004312Y021155D01*
X004113Y021073D01*
X003898Y021073D01*
X003700Y021155D01*
X003548Y021307D01*
X003466Y021505D01*
X003466Y021720D01*
X003548Y021918D01*
X003700Y022070D01*
X003898Y022153D01*
X004113Y022153D01*
X004312Y022070D01*
X004463Y021918D01*
X004506Y021816D01*
X004548Y021918D01*
X004700Y022070D01*
X004898Y022153D01*
X005113Y022153D01*
X005312Y022070D01*
X005463Y021918D01*
X005517Y021790D01*
X005524Y021812D01*
X005561Y021885D01*
X005609Y021951D01*
X005667Y022009D01*
X005733Y022057D01*
X005806Y022094D01*
X005884Y022120D01*
X005956Y022131D01*
X005956Y021663D01*
X006056Y021663D01*
X006056Y022131D01*
X006127Y022120D01*
X006205Y022094D01*
X006278Y022057D01*
X006344Y022009D01*
X006402Y021951D01*
X006450Y021885D01*
X006488Y021812D01*
X006513Y021734D01*
X006524Y021663D01*
X006056Y021663D01*
X006056Y021563D01*
X006524Y021563D01*
X006513Y021491D01*
X006488Y021413D01*
X006450Y021340D01*
X006402Y021274D01*
X006344Y021216D01*
X006278Y021168D01*
X006205Y021131D01*
X006351Y021223D02*
X007979Y021223D01*
X007966Y021321D02*
X006437Y021321D01*
X006490Y021420D02*
X007966Y021420D01*
X007986Y021518D02*
X006517Y021518D01*
X006516Y021715D02*
X008095Y021715D01*
X008027Y021617D02*
X006056Y021617D01*
X006056Y021715D02*
X005956Y021715D01*
X005956Y021814D02*
X006056Y021814D01*
X006056Y021913D02*
X005956Y021913D01*
X005956Y022011D02*
X006056Y022011D01*
X006056Y022110D02*
X005956Y022110D01*
X005853Y022110D02*
X005217Y022110D01*
X005371Y022011D02*
X005669Y022011D01*
X005581Y021913D02*
X005466Y021913D01*
X005507Y021814D02*
X005525Y021814D01*
X005510Y021420D02*
X005522Y021420D01*
X005469Y021321D02*
X005575Y021321D01*
X005660Y021223D02*
X005379Y021223D01*
X005238Y021124D02*
X005826Y021124D01*
X005956Y021124D02*
X006056Y021124D01*
X006056Y021223D02*
X005956Y021223D01*
X005956Y021321D02*
X006056Y021321D01*
X006056Y021420D02*
X005956Y021420D01*
X005956Y021518D02*
X006056Y021518D01*
X006159Y022110D02*
X009056Y022110D01*
X009056Y022011D02*
X006342Y022011D01*
X006431Y021913D02*
X009056Y021913D01*
X009056Y021814D02*
X008818Y021814D01*
X008916Y021715D02*
X009056Y021715D01*
X009056Y021617D02*
X008985Y021617D01*
X009026Y021518D02*
X009056Y021518D01*
X009046Y021420D02*
X009056Y021420D01*
X009046Y021321D02*
X009056Y021321D01*
X009056Y021223D02*
X009032Y021223D01*
X009056Y021124D02*
X008991Y021124D01*
X008932Y021026D02*
X009056Y021026D01*
X009056Y020927D02*
X008834Y020927D01*
X008737Y020829D02*
X009056Y020829D01*
X009056Y020730D02*
X008874Y020730D01*
X008952Y020631D02*
X009056Y020631D01*
X009056Y020533D02*
X008997Y020533D01*
X009021Y020434D02*
X009056Y020434D01*
X009056Y020336D02*
X008556Y020336D01*
X008811Y019942D02*
X009056Y019942D01*
X009056Y020040D02*
X008914Y020040D01*
X008975Y020139D02*
X009056Y020139D01*
X009056Y020237D02*
X009012Y020237D01*
X009056Y019843D02*
X002456Y019843D01*
X002456Y019745D02*
X009056Y019745D01*
X009056Y019646D02*
X008629Y019646D01*
X008834Y019547D02*
X009056Y019547D01*
X009056Y019449D02*
X008933Y019449D01*
X008992Y019350D02*
X009056Y019350D01*
X009056Y019252D02*
X009032Y019252D01*
X009046Y019153D02*
X009056Y019153D01*
X009046Y019055D02*
X009056Y019055D01*
X009056Y018956D02*
X009025Y018956D01*
X009056Y018858D02*
X008985Y018858D01*
X008916Y018759D02*
X009056Y018759D01*
X009056Y018661D02*
X008817Y018661D01*
X008200Y019942D02*
X002456Y019942D01*
X002456Y020040D02*
X008097Y020040D01*
X008036Y020139D02*
X002456Y020139D01*
X002456Y020237D02*
X008000Y020237D01*
X008177Y019547D02*
X007784Y019547D01*
X007883Y019449D02*
X008078Y019449D01*
X008020Y019350D02*
X007942Y019350D01*
X007975Y018956D02*
X007986Y018956D01*
X008027Y018858D02*
X007935Y018858D01*
X007866Y018759D02*
X008095Y018759D01*
X008194Y018661D02*
X007767Y018661D01*
X008761Y016591D02*
X009056Y016591D01*
X009056Y016493D02*
X008889Y016493D01*
X008974Y016394D02*
X009056Y016394D01*
X009056Y016296D02*
X009014Y016296D01*
X009046Y016197D02*
X009056Y016197D01*
X009046Y016098D02*
X009056Y016098D01*
X009043Y016000D02*
X009056Y016000D01*
X009056Y015901D02*
X009003Y015901D01*
X008960Y015803D02*
X009056Y015803D01*
X009056Y015704D02*
X008861Y015704D01*
X008693Y015606D02*
X009056Y015606D01*
X009056Y016690D02*
X004766Y016690D01*
X004766Y016591D02*
X005250Y016591D01*
X005122Y016493D02*
X004759Y016493D01*
X004718Y016394D02*
X005038Y016394D01*
X004997Y016296D02*
X004653Y016296D01*
X004545Y016197D02*
X004966Y016197D01*
X004727Y016788D02*
X009056Y016788D01*
X009056Y016887D02*
X004676Y016887D01*
X004578Y016985D02*
X009056Y016985D01*
X007628Y014226D02*
X006468Y014226D01*
X006431Y014325D02*
X007540Y014325D01*
X007500Y014423D02*
X006367Y014423D01*
X006249Y014522D02*
X007466Y014522D01*
X007694Y014029D02*
X006473Y014029D01*
X006446Y013931D02*
X007594Y013931D01*
X007534Y013832D02*
X006389Y013832D01*
X006292Y013733D02*
X007498Y013733D01*
X007241Y012551D02*
X009056Y012551D01*
X009056Y012649D02*
X002456Y012649D01*
X002456Y012551D02*
X002820Y012551D01*
X002823Y012553D02*
X002757Y012519D01*
X002696Y012475D01*
X002643Y012422D01*
X002599Y012362D01*
X002565Y012295D01*
X002542Y012224D01*
X002531Y012150D01*
X002531Y012131D01*
X002986Y012131D01*
X002986Y012094D01*
X002531Y012094D01*
X002531Y012075D01*
X002542Y012001D01*
X002565Y011930D01*
X002599Y011864D01*
X002643Y011803D01*
X002696Y011750D01*
X002757Y011706D01*
X002823Y011672D01*
X002894Y011649D01*
X002968Y011638D01*
X002987Y011638D01*
X002987Y012093D01*
X003025Y012093D01*
X003025Y011638D01*
X003043Y011638D01*
X003117Y011649D01*
X003188Y011672D01*
X003255Y011706D01*
X003315Y011750D01*
X003368Y011803D01*
X003412Y011864D01*
X003446Y011930D01*
X003469Y012001D01*
X003481Y012075D01*
X003481Y012094D01*
X003025Y012094D01*
X003025Y012131D01*
X003481Y012131D01*
X003481Y012150D01*
X003469Y012224D01*
X003446Y012295D01*
X003412Y012362D01*
X003368Y012422D01*
X003315Y012475D01*
X003255Y012519D01*
X003188Y012553D01*
X003117Y012576D01*
X003043Y012588D01*
X003025Y012588D01*
X003025Y012132D01*
X002987Y012132D01*
X002987Y012588D01*
X002968Y012588D01*
X002894Y012576D01*
X002823Y012553D01*
X002987Y012551D02*
X003025Y012551D01*
X003025Y012452D02*
X002987Y012452D01*
X002987Y012354D02*
X003025Y012354D01*
X003025Y012255D02*
X002987Y012255D01*
X002987Y012157D02*
X003025Y012157D01*
X003025Y012058D02*
X002987Y012058D01*
X002987Y011960D02*
X003025Y011960D01*
X003025Y011861D02*
X002987Y011861D01*
X002987Y011763D02*
X003025Y011763D01*
X003025Y011664D02*
X002987Y011664D01*
X002849Y011664D02*
X002456Y011664D01*
X002456Y011565D02*
X009056Y011565D01*
X009056Y011467D02*
X002456Y011467D01*
X002456Y011368D02*
X009056Y011368D01*
X009056Y011270D02*
X002456Y011270D01*
X002456Y011171D02*
X009056Y011171D01*
X009056Y011073D02*
X002456Y011073D01*
X002456Y010974D02*
X009056Y010974D01*
X009056Y010876D02*
X002456Y010876D01*
X002456Y010777D02*
X009056Y010777D01*
X009056Y010679D02*
X002456Y010679D01*
X002456Y010580D02*
X009056Y010580D01*
X009056Y010481D02*
X002456Y010481D01*
X002456Y010383D02*
X009056Y010383D01*
X009056Y010284D02*
X002456Y010284D01*
X002456Y010186D02*
X009056Y010186D01*
X009056Y010087D02*
X002456Y010087D01*
X002456Y009989D02*
X009056Y009989D01*
X009056Y009890D02*
X002456Y009890D01*
X002456Y009792D02*
X009056Y009792D01*
X009056Y011664D02*
X007216Y011664D01*
X007356Y011763D02*
X009056Y011763D01*
X009056Y011861D02*
X007437Y011861D01*
X007478Y011960D02*
X009056Y011960D01*
X009056Y012058D02*
X007501Y012058D01*
X007501Y012157D02*
X009056Y012157D01*
X009056Y012255D02*
X007482Y012255D01*
X007441Y012354D02*
X009056Y012354D01*
X009056Y012452D02*
X007366Y012452D01*
X008228Y013142D02*
X009056Y013142D01*
X009056Y013044D02*
X002456Y013044D01*
X002456Y012945D02*
X009056Y012945D01*
X009056Y012847D02*
X002456Y012847D01*
X002456Y012748D02*
X009056Y012748D01*
X009056Y013241D02*
X008369Y013241D01*
X008450Y013339D02*
X009056Y013339D01*
X009056Y013438D02*
X008496Y013438D01*
X008520Y013536D02*
X009056Y013536D01*
X008193Y021814D02*
X006487Y021814D01*
X004795Y022110D02*
X004217Y022110D01*
X004371Y022011D02*
X004640Y022011D01*
X004545Y021913D02*
X004466Y021913D01*
X004469Y021321D02*
X004542Y021321D01*
X004632Y021223D02*
X004379Y021223D01*
X004238Y021124D02*
X004774Y021124D01*
X003774Y021124D02*
X002456Y021124D01*
X002456Y021223D02*
X003632Y021223D01*
X003542Y021321D02*
X002456Y021321D01*
X002456Y021420D02*
X003501Y021420D01*
X003466Y021518D02*
X002456Y021518D01*
X002456Y021617D02*
X003466Y021617D01*
X003466Y021715D02*
X002456Y021715D01*
X002456Y021814D02*
X003505Y021814D01*
X003545Y021913D02*
X002456Y021913D01*
X002456Y022011D02*
X003640Y022011D01*
X003795Y022110D02*
X002456Y022110D01*
X003192Y012551D02*
X003554Y012551D01*
X003511Y012452D02*
X003338Y012452D01*
X003416Y012354D02*
X003511Y012354D01*
X003511Y012255D02*
X003459Y012255D01*
X003480Y012157D02*
X003511Y012157D01*
X003511Y012058D02*
X003478Y012058D01*
X003455Y011960D02*
X003511Y011960D01*
X003511Y011861D02*
X003410Y011861D01*
X003327Y011763D02*
X003511Y011763D01*
X003564Y011664D02*
X003162Y011664D01*
X002684Y011763D02*
X002456Y011763D01*
X002456Y011861D02*
X002601Y011861D01*
X002556Y011960D02*
X002456Y011960D01*
X002456Y012058D02*
X002533Y012058D01*
X002532Y012157D02*
X002456Y012157D01*
X002456Y012255D02*
X002553Y012255D01*
X002596Y012354D02*
X002456Y012354D01*
X002456Y012452D02*
X002674Y012452D01*
X008861Y002992D02*
X009056Y002992D01*
X009056Y002894D02*
X008944Y002894D01*
X008993Y002795D02*
X009056Y002795D01*
X009056Y002697D02*
X009019Y002697D01*
M02*
