%
M48
M72
T01C0.0276
T02C0.0315
T03C0.0320
T04C0.0354
T05C0.0394
T06C0.0400
T07C0.1180
%
T01
X3006Y12113
X4006Y12113
X5006Y14113
X6006Y14113
X6006Y12113
X7006Y12113
T02
X7956Y8613
X7956Y6613
T03
X8006Y13613
X8006Y14613
T04
X8506Y16113
X7456Y16113
X6506Y16113
X5506Y16113
X5506Y19113
X6506Y19113
X7456Y19113
X8506Y19113
T05
X3006Y4613
X7006Y4613
T06
X6006Y2613
X5006Y2613
X4006Y2613
X8506Y2613
X8506Y3613
X3996Y16603
X3996Y17603
X3996Y18603
X4006Y21613
X5006Y21613
X6006Y21613
X8506Y21363
X8506Y20363
T07
X5899Y8613
X4718Y6762
X3537Y8613
M30
